<svg xmlns="http://www.w3.org/2000/svg" width="2072.86" height="1459.626" viewBox="0 0 2072.86 1459.626"><g transform="translate(-444.941 -179.493)"><path d="M836.429,561.552,818.062,384,665,564.613Z" transform="translate(451.41 418.43)" fill="#f65a72" stroke="#f65a72" stroke-width="1.51"/><path d="M861.347,406.674,644,373l64.286,214.286Z" transform="translate(408.124 395.757)" fill="#f65d78" stroke="#f65d78" stroke-width="1.51"/><path d="M733.367,565.674,907.858,382,715,388.122Z" transform="translate(554.472 414.308)" fill="#f65b73" stroke="#f65b73" stroke-width="1.51"/><path d="M861.347,513.858,842.98,321,644,480.184Z" transform="translate(408.124 288.573)" fill="#f75f7d" stroke="#f75f7d" stroke-width="1.51"/><path d="M721,565.674l165.307,52.041L895.49,382Z" transform="translate(566.839 414.308)" fill="#f55871" stroke="#f55871" stroke-width="1.51"/><path d="M748.551,650.164,886.307,494.041,721,442Z" transform="translate(566.839 537.982)" fill="#f5576f" stroke="#f5576f" stroke-width="1.51"/><path d="M920.225,507.735,709,321l18.367,192.858Z" transform="translate(542.104 288.573)" fill="#f65d7a" stroke="#f65d7a" stroke-width="1.51"/><path d="M665,445.061l198.98,205.1L836.429,442Z" transform="translate(451.41 537.982)" fill="#f5576e" stroke="#f5576e" stroke-width="1.51"/><path d="M842.98,323.061,677.674,320,644,482.245Z" transform="translate(408.124 286.511)" fill="#f76182" stroke="#f76182" stroke-width="1.51"/><path d="M767.674,373,584,434.225,831.96,587.286Z" transform="translate(284.45 395.757)" fill="#f75e7b" stroke="#f75e7b" stroke-width="1.51"/><path d="M673.245,443,661,700.144,872.225,648.1Z" transform="translate(443.165 540.043)" fill="#f55872" stroke="#f55872" stroke-width="1.51"/><path d="M626.857,322,584,539.347l183.674-61.225Z" transform="translate(284.45 290.634)" fill="#f76284" stroke="#f76284" stroke-width="1.51"/><path d="M584,393V579.735l247.96-33.673Z" transform="translate(284.45 436.982)" fill="#f75d79" stroke="#f75d79" stroke-width="1.51"/><path d="M586,663.409l229.592,36.735L827.837,443Z" transform="translate(288.573 540.043)" fill="#f55a77" stroke="#f55a77" stroke-width="1.51"/><path d="M772.49,320,598,326.122,738.817,482.245Z" transform="translate(313.308 286.511)" fill="#f86385" stroke="#f86385" stroke-width="1.51"/><path d="M920.225,524.225,923.286,313,709,337.49Z" transform="translate(542.104 272.083)" fill="#f65e7e" stroke="#f65e7e" stroke-width="1.51"/><path d="M820.307,485.9,682.551,241,655,482.837Z" transform="translate(430.798 123.674)" fill="#f76488" stroke="#f76488" stroke-width="1.51"/><path d="M811.654,460.164,579,252l58.163,214.286Z" transform="translate(274.144 146.348)" fill="#f8668e" stroke="#f8668e" stroke-width="1.51"/><path d="M730,615.123,922.858,609l-55.1-150Z" transform="translate(585.39 573.023)" fill="#f45671" stroke="#f45671" stroke-width="1.51"/><path d="M775,617.715,995.409,397.306,784.184,382Z" transform="translate(678.146 414.308)" fill="#f55975" stroke="#f55975" stroke-width="1.51"/><path d="M778,524.225l211.225,15.306L781.061,313Z" transform="translate(684.329 272.083)" fill="#f55c7c" stroke="#f55c7c" stroke-width="1.51"/><path d="M901.429,746.776,922.858,508,730,514.122Z" transform="translate(585.39 674.023)" fill="#f35574" stroke="#f35574" stroke-width="1.51"/><path d="M584,476.673l6.122,186.735L831.96,443Z" transform="translate(284.45 540.043)" fill="#f65b78" stroke="#f65b78" stroke-width="1.51"/><path d="M1035.2,552.307,995.409,387,775,607.409Z" transform="translate(678.146 424.614)" fill="#f55873" stroke="#f55873" stroke-width="1.51"/><path d="M661,562.041,850.8,721.225,872.225,510Z" transform="translate(443.165 678.146)" fill="#f45673" stroke="#f45673" stroke-width="1.51"/><path d="M642,680.062l247.96,6.122L700.163,527Z" transform="translate(404.002 713.187)" fill="#f45777" stroke="#f45777" stroke-width="1.51"/><path d="M923.286,436.674,773.286,253,709,461.164Z" transform="translate(542.104 148.409)" fill="#f76284" stroke="#f76284" stroke-width="1.51"/><path d="M935.1,268.306,730,253,880,436.674Z" transform="translate(585.39 148.409)" fill="#f76389" stroke="#f76389" stroke-width="1.51"/><path d="M586,515,757.429,704.8l58.163-153.062Z" transform="translate(288.573 688.452)" fill="#f55a7a" stroke="#f55a7a" stroke-width="1.51"/><path d="M830.1,646.1,1035.2,441,775,496.1Z" transform="translate(678.146 535.921)" fill="#f45571" stroke="#f45571" stroke-width="1.51"/><path d="M970.552,682.837,998.1,441,793,646.1Z" transform="translate(715.248 535.921)" fill="#f45573" stroke="#f45573" stroke-width="1.51"/><path d="M705.613,393,525,546.062l180.613,33.673Z" transform="translate(162.837 436.982)" fill="#f75f7e" stroke="#f75f7e" stroke-width="1.51"/><path d="M689.123,454,533,613.184l162.245,27.551Z" transform="translate(179.327 562.717)" fill="#f65d7d" stroke="#f65d7d" stroke-width="1.51"/><path d="M521,380l12.245,192.858L713.858,419.8Z" transform="translate(154.592 410.185)" fill="#f76284" stroke="#f76284" stroke-width="1.51"/><path d="M756.715,322,521,499.552l192.858,39.8Z" transform="translate(154.592 290.634)" fill="#f76487" stroke="#f76487" stroke-width="1.51"/><path d="M866.041,277.735,664,241,801.756,485.9Z" transform="translate(449.349 123.674)" fill="#f76489" stroke="#f76489" stroke-width="1.51"/><path d="M777.327,336.429,511,315l30.612,198.98Z" transform="translate(133.98 276.205)" fill="#f8668e" stroke="#f8668e" stroke-width="1.51"/><path d="M525,443l24.49,192.858L705.613,476.673Z" transform="translate(162.837 540.043)" fill="#f65e7d" stroke="#f65e7d" stroke-width="1.51"/><path d="M586,515l12.245,183.674L757.429,704.8Z" transform="translate(288.573 688.452)" fill="#f45a7d" stroke="#f45a7d" stroke-width="1.51"/><path d="M1030.021,469.225,834.1,258,779,426.368Z" transform="translate(686.391 158.715)" fill="#f66186" stroke="#f66186" stroke-width="1.51"/><path d="M878.409,183,658,228.919l18.367,131.633Z" transform="translate(436.982 4.122)" fill="#f86995" stroke="#f86995" stroke-width="1.51"/><path d="M533,506,707.49,717.225,695.245,533.551Z" transform="translate(179.327 669.901)" fill="#f55c7f" stroke="#f55c7f" stroke-width="1.51"/><path d="M943,713.1l27.551-168.368L793,508Z" transform="translate(715.248 674.023)" fill="#f35576" stroke="#f35576" stroke-width="1.51"/><path d="M987.164,539.531l42.857-183.674L779,313Z" transform="translate(686.391 272.083)" fill="#f65e81" stroke="#f65e81" stroke-width="1.51"/><path d="M1067.409,483.123,889.857,327,847,510.674Z" transform="translate(826.555 300.94)" fill="#f55c7f" stroke="#f55c7f" stroke-width="1.51"/><path d="M723,721.225l192.858,21.429L744.428,510Z" transform="translate(570.962 678.146)" fill="#f35474" stroke="#f35474" stroke-width="1.51"/><path d="M903.613,747.368l12.245-146.939L723,579Z" transform="translate(570.962 820.371)" fill="#f25477" stroke="#f25477" stroke-width="1.51"/><path d="M681.8,794.348,889.96,583.122,642,577Z" transform="translate(404.002 816.248)" fill="#f3577a" stroke="#f3577a" stroke-width="1.51"/><path d="M839.2,241,579,274.674,811.654,482.837Z" transform="translate(274.144 123.674)" fill="#f86790" stroke="#f86790" stroke-width="1.51"/><path d="M581.408,256,511,436.613l266.327,21.429Z" transform="translate(133.98 154.592)" fill="#f86994" stroke="#f86994" stroke-width="1.51"/><path d="M630.245,380,468,575.919l174.49-3.061Z" transform="translate(45.347 410.185)" fill="#f76284" stroke="#f76284" stroke-width="1.51"/><path d="M786,746.776,957.429,713.1l-150-205.1Z" transform="translate(700.819 674.023)" fill="#f25476" stroke="#f25476" stroke-width="1.51"/><path d="M839.2,333.755,615.735,196,579,367.429Z" transform="translate(274.144 30.919)" fill="#f86b98" stroke="#f86b98" stroke-width="1.51"/><path d="M866.041,183,664,360.552l202.041,36.735Z" transform="translate(449.349 4.122)" fill="#f8678f" stroke="#f8678f" stroke-width="1.51"/><path d="M671.755,252,534,264.245,729.919,466.286Z" transform="translate(181.389 146.348)" fill="#f86a95" stroke="#f86a95" stroke-width="1.51"/><path d="M708.49,196,534,379.674l137.755-12.245Z" transform="translate(181.389 30.919)" fill="#f86c9c" stroke="#f86c9c" stroke-width="1.51"/><path d="M642.49,443,468,446.061l198.98,189.8Z" transform="translate(45.347 540.043)" fill="#f76081" stroke="#f76081" stroke-width="1.51"/><path d="M576.286,506,512,698.858l238.776,18.367Z" transform="translate(136.041 669.901)" fill="#f55d83" stroke="#f55d83" stroke-width="1.51"/><path d="M446,386.122l67.347,189.8L675.592,380Z" transform="translate(0 410.185)" fill="#f7658a" stroke="#f7658a" stroke-width="1.51"/><path d="M886.8,570.858,1067.409,378,847,405.551Z" transform="translate(826.555 406.063)" fill="#f45979" stroke="#f45979" stroke-width="1.51"/><path d="M992.919,493.96,959.245,246,797,282.735Z" transform="translate(723.493 133.98)" fill="#f5628b" stroke="#f5628b" stroke-width="1.51"/><path d="M1049.8,604.531,1040.613,378,860,570.858Z" transform="translate(853.351 406.063)" fill="#f45777" stroke="#f45777" stroke-width="1.51"/><path d="M1049.8,474.674,860,441l140.817,226.531Z" transform="translate(853.351 535.921)" fill="#f35474" stroke="#f35474" stroke-width="1.51"/><path d="M919.8,204.429,730,183V397.286Z" transform="translate(585.39 4.122)" fill="#f76792" stroke="#f76792" stroke-width="1.51"/><path d="M1024.49,435.8,850,246l33.673,247.96Z" transform="translate(832.738 133.98)" fill="#f5608a" stroke="#f5608a" stroke-width="1.51"/><path d="M1019.368,667.531,878.551,441,851,682.837Z" transform="translate(834.799 535.921)" fill="#f35575" stroke="#f35575" stroke-width="1.51"/><path d="M578,757.613l235.715,36.735L773.919,577Z" transform="translate(272.083 816.248)" fill="#f35880" stroke="#f35880" stroke-width="1.51"/><path d="M794.245,608.674,782,755.613,965.674,575Z" transform="translate(692.574 812.126)" fill="#f25379" stroke="#f25379" stroke-width="1.51"/><path d="M578,761.735,773.919,581.122,614.735,575Z" transform="translate(272.083 812.126)" fill="#f45a80" stroke="#f45a80" stroke-width="1.51"/><path d="M1022.429,729.286,1019.368,515,851,530.306Z" transform="translate(834.799 688.452)" fill="#f25478" stroke="#f25478" stroke-width="1.51"/><path d="M919.8,190,730,382.858l205.1,15.306Z" transform="translate(585.39 18.551)" fill="#f7658f" stroke="#f7658f" stroke-width="1.51"/><path d="M735.245,808.593l168.368-61.225L723,579Z" transform="translate(570.962 820.371)" fill="#f25378" stroke="#f25378" stroke-width="1.51"/><path d="M842,688.368l198.98,30.612L869.551,520Z" transform="translate(816.248 698.758)" fill="#f25479" stroke="#f25479" stroke-width="1.51"/><path d="M450,554.98,639.8,698.858,704.082,506Z" transform="translate(8.245 669.901)" fill="#f55f86" stroke="#f55f86" stroke-width="1.51"/><path d="M1038.552,522.286,1001.817,308,861,366.163Z" transform="translate(855.412 261.777)" fill="#f55d84" stroke="#f55d84" stroke-width="1.51"/><path d="M655,790.225l220.409,18.367L863.164,579Z" transform="translate(430.798 820.371)" fill="#f25579" stroke="#f25579" stroke-width="1.51"/><path d="M796.1,202.122,591,196,814.47,333.755Z" transform="translate(298.879 30.919)" fill="#f86b99" stroke="#f86b99" stroke-width="1.51"/><path d="M969.552,361.429,792,190l15.306,208.164Z" transform="translate(713.187 18.551)" fill="#f66591" stroke="#f66591" stroke-width="1.51"/><path d="M512,569,714.041,774.1l36.735-186.735Z" transform="translate(136.041 799.758)" fill="#f45c84" stroke="#f45c84" stroke-width="1.51"/><path d="M461.306,321,446,507.735l229.593-6.122Z" transform="translate(0 288.573)" fill="#f86891" stroke="#f86891" stroke-width="1.51"/><path d="M505.1,444,450,682.776,704.082,633.8Z" transform="translate(8.245 542.104)" fill="#f66185" stroke="#f66185" stroke-width="1.51"/><path d="M451,333.367,665.286,513.98,634.674,315Z" transform="translate(10.306 276.205)" fill="#f86892" stroke="#f86892" stroke-width="1.51"/><path d="M454.061,247,451,473.531l183.674-18.367Z" transform="translate(10.306 136.041)" fill="#f86c9c" stroke="#f86c9c" stroke-width="1.51"/><path d="M452,247,632.613,455.164l70.408-180.613Z" transform="translate(12.367 136.041)" fill="#f86d9c" stroke="#f86d9c" stroke-width="1.51"/><path d="M512,569l42.857,238.776L714.041,774.1Z" transform="translate(136.041 799.758)" fill="#f45c88" stroke="#f45c88" stroke-width="1.51"/><path d="M1139.348,588.98,1124.041,390,922,579.8Z" transform="translate(981.147 430.798)" fill="#f35678" stroke="#f35678" stroke-width="1.51"/><path d="M884.857,777.041,1040.98,605.612,842,575Z" transform="translate(816.248 812.126)" fill="#f1537c" stroke="#f1537c" stroke-width="1.51"/><path d="M1024.49,441.98,1030.613,243,850,252.184Z" transform="translate(832.738 127.796)" fill="#f5628f" stroke="#f5628f" stroke-width="1.51"/><path d="M969.552,367.613,997.1,187,792,196.184Z" transform="translate(713.187 12.367)" fill="#f76796" stroke="#f76796" stroke-width="1.51"/><path d="M1127.409,307.286,913.122,243,907,441.98Z" transform="translate(950.229 127.796)" fill="#f46190" stroke="#f46190" stroke-width="1.51"/><path d="M782,755.613l226.531,21.428L965.674,575Z" transform="translate(692.574 812.126)" fill="#f1537b" stroke="#f1537b" stroke-width="1.51"/><path d="M1030.613,358.429,877.551,187,850,367.613Z" transform="translate(832.738 12.367)" fill="#f66595" stroke="#f66595" stroke-width="1.51"/><path d="M455,642.47,672.347,807.776,629.49,569Z" transform="translate(18.551 799.758)" fill="#f45e8b" stroke="#f45e8b" stroke-width="1.51"/><path d="M641.8,181,452,383.041l251.021,27.551Z" transform="translate(12.367)" fill="#f870a3" stroke="#f870a3" stroke-width="1.51"/><path d="M749.715,226.918,514,181l61.225,229.592Z" transform="translate(140.164)" fill="#f86fa1" stroke="#f86fa1" stroke-width="1.51"/><path d="M450,522l15.306,217.348,174.49-73.47Z" transform="translate(8.245 702.881)" fill="#f5608b" stroke="#f5608b" stroke-width="1.51"/><path d="M928.184,604.531l202.041-189.8L919,378Z" transform="translate(974.963 406.063)" fill="#f3587c" stroke="#f3587c" stroke-width="1.51"/><path d="M943.735,522.286l226.531-211.225L907,308Z" transform="translate(950.229 261.777)" fill="#f45d86" stroke="#f45d86" stroke-width="1.51"/><path d="M1139.348,461.184,922,452l183.674,192.858Z" transform="translate(981.147 558.594)" fill="#f25477" stroke="#f25477" stroke-width="1.51"/><path d="M1138.654,644.858,954.98,452,906,644.858Z" transform="translate(948.167 558.594)" fill="#f25378" stroke="#f25378" stroke-width="1.51"/><path d="M1138.654,723.164,906,515l3.061,214.286Z" transform="translate(948.167 688.452)" fill="#f1527c" stroke="#f1527c" stroke-width="1.51"/><path d="M1138.654,723.164V515H906Z" transform="translate(948.167 688.452)" fill="#f1537b" stroke="#f1537b" stroke-width="1.51"/><path d="M1130.225,556.96,1145.531,309,919,520.225Z" transform="translate(974.963 263.838)" fill="#f35b83" stroke="#f35b83" stroke-width="1.51"/><path d="M1012.062,360.49,1061.041,186,859,189.061Z" transform="translate(851.289 10.306)" fill="#f56699" stroke="#f56699" stroke-width="1.51"/><path d="M1159.429,504.919,1003.306,309,988,556.96Z" transform="translate(1117.188 263.838)" fill="#f35b86" stroke="#f35b86" stroke-width="1.51"/><path d="M856,756.429l168.368,36.735L1012.123,585Z" transform="translate(845.106 832.738)" fill="#f0527e" stroke="#f0527e" stroke-width="1.51"/><path d="M1170.266,401.756,1127.409,264,907,398.694Z" transform="translate(950.229 171.082)" fill="#f45f8d" stroke="#f45f8d" stroke-width="1.51"/><path d="M1123.286,424.776,957.98,186,909,360.49Z" transform="translate(954.351 10.306)" fill="#f56496" stroke="#f56496" stroke-width="1.51"/><path d="M919.245,797.286,1136.592,583,907,589.122Z" transform="translate(950.229 828.616)" fill="#f0527f" stroke="#f0527f" stroke-width="1.51"/><path d="M1165.552,558.368,988,390l15.306,198.98Z" transform="translate(1117.188 430.798)" fill="#f2567b" stroke="#f2567b" stroke-width="1.51"/><path d="M911,797.286l205.1,12.245L1128.348,583Z" transform="translate(958.473 828.616)" fill="#ef5181" stroke="#ef5181" stroke-width="1.51"/><path d="M1021.857,410l195.919-150L979,272.245Z" transform="translate(1098.637 162.837)" fill="#f36092" stroke="#f36092" stroke-width="1.51"/><path d="M1165.552,593.409,1159.429,373,988,425.041Z" transform="translate(1117.188 395.757)" fill="#f2577f" stroke="#f2577f" stroke-width="1.51"/><path d="M1155.245,445,993,475.612l156.123,171.429Z" transform="translate(1127.495 544.166)" fill="#f1537a" stroke="#f1537a" stroke-width="1.51"/><path d="M1171.8,626.429,1015.673,455,982,638.674Z" transform="translate(1104.821 564.778)" fill="#f1537a" stroke="#f1537a" stroke-width="1.51"/><path d="M1165.674,709.98,1171.8,511,982,523.245Z" transform="translate(1104.821 680.207)" fill="#f0527e" stroke="#f0527e" stroke-width="1.51"/><path d="M1165.674,701.735,982,515V723.164Z" transform="translate(1104.821 688.452)" fill="#f0527e" stroke="#f0527e" stroke-width="1.51"/><path d="M1111.735,192.122,925,186l165.307,238.776Z" transform="translate(987.331 10.306)" fill="#f5659a" stroke="#f5659a" stroke-width="1.51"/><path d="M1149.123,504.919,1167.49,348.8,993,309Z" transform="translate(1127.495 263.838)" fill="#f35c89" stroke="#f35c89" stroke-width="1.51"/><path d="M1230.613,307,1050,352.918l220.409,174.49Z" transform="translate(1244.985 259.715)" fill="#f25b8c" stroke="#f25b8c" stroke-width="1.51"/><path d="M1071.428,260,1050,449.8l180.613-45.918Z" transform="translate(1244.985 162.837)" fill="#f35e91" stroke="#f35e91" stroke-width="1.51"/><path d="M1217.776,408.409,1000.429,188,979,420.654Z" transform="translate(1098.637 14.429)" fill="#f36398" stroke="#f36398" stroke-width="1.51"/><path d="M1147.306,781.1,1165.674,576,982,597.429Z" transform="translate(1104.821 814.187)" fill="#ef5181" stroke="#ef5181" stroke-width="1.51"/><path d="M1282.776,391.367,1044,373l6.123,220.409Z" transform="translate(1232.618 395.757)" fill="#f25782" stroke="#f25782" stroke-width="1.51"/><path d="M1224.613,475.612,1050.123,445,1044,647.041Z" transform="translate(1232.618 544.166)" fill="#f1537b" stroke="#f1537b" stroke-width="1.51"/><path d="M1167.49,449.8,1188.919,260,993,410Z" transform="translate(1127.495 162.837)" fill="#f35e90" stroke="#f35e90" stroke-width="1.51"/><path d="M978,809.531l177.551-42.857L990.245,583Z" transform="translate(1096.576 828.616)" fill="#ee5182" stroke="#ee5182" stroke-width="1.51"/><path d="M1279.715,504,1044,525.429l238.776,208.164Z" transform="translate(1232.618 665.778)" fill="#ef5180" stroke="#ef5180" stroke-width="1.51"/><path d="M1279.715,605l-55.1-150L1044,626.429Z" transform="translate(1232.618 564.778)" fill="#f0527d" stroke="#f0527d" stroke-width="1.51"/><path d="M1203.348,408.409l-3.061-214.286L986,188Z" transform="translate(1113.066 14.429)" fill="#f4649d" stroke="#f4649d" stroke-width="1.51"/><path d="M1196.817,193.061,1056,190l3.061,214.286Z" transform="translate(1257.352 18.551)" fill="#f3649e" stroke="#f3649e" stroke-width="1.51"/><path d="M1282.776,496.49,1062.368,322,1044,478.123Z" transform="translate(1232.618 290.634)" fill="#f25a88" stroke="#f25a88" stroke-width="1.51"/><path d="M1220.49,611.654,1278.654,379,1046,581.041Z" transform="translate(1236.74 408.124)" fill="#f1557e" stroke="#f1557e" stroke-width="1.51"/><path d="M1286.9,719.164,1048.122,511,1042,709.98Z" transform="translate(1228.495 680.207)" fill="#ef5180" stroke="#ef5180" stroke-width="1.51"/><path d="M1216.184,408l-18.367-150L1057,264.122Z" transform="translate(1259.413 158.715)" fill="#f26095" stroke="#f26095" stroke-width="1.51"/><path d="M1222.613,814.776,1286.9,585.184,1042,576Z" transform="translate(1228.495 814.187)" fill="#ee5084" stroke="#ee5084" stroke-width="1.51"/><path d="M1234.98,814.776,1054.367,576,1036,781.1Z" transform="translate(1216.128 814.187)" fill="#ee5085" stroke="#ee5085" stroke-width="1.51"/><path d="M1197.817,396.1,1194.756,191,1057,402.225Z" transform="translate(1259.413 20.612)" fill="#f2629b" stroke="#f2629b" stroke-width="1.51"/></g></svg>
