<svg id="computer" xmlns="http://www.w3.org/2000/svg" xmlns:xlink="http://www.w3.org/1999/xlink" width="77.27" height="77.27" viewBox="0 0 77.27 77.27">
  <defs>
    <linearGradient id="linear-gradient" x1="2.211" x2="-1.219" y2="1.855" gradientUnits="objectBoundingBox">
      <stop offset="0" stop-color="#ff63b9"/>
      <stop offset="1" stop-color="#ba37d2"/>
    </linearGradient>
  </defs>
  <path id="Path_292" data-name="Path 292" d="M307.509,346a1.509,1.509,0,1,0,1.509,1.509A1.51,1.51,0,0,0,307.509,346Zm0,0" transform="translate(-259.819 -293.783)" fill="url(#linear-gradient)"/>
  <path id="Path_293" data-name="Path 293" d="M69.724,0H7.546A7.554,7.554,0,0,0,0,7.546V53.726a7.554,7.554,0,0,0,7.546,7.546H31.089v6.942H29.58a7.548,7.548,0,0,0-7.546,7.546,1.509,1.509,0,0,0,1.509,1.509H53.726a1.509,1.509,0,0,0,1.509-1.509,7.554,7.554,0,0,0-7.546-7.546H46.181V61.272H69.724a7.554,7.554,0,0,0,7.546-7.546V7.546A7.554,7.554,0,0,0,69.724,0ZM7.546,3.018H69.724a4.532,4.532,0,0,1,4.528,4.528V46.181H67.309V11.47A1.509,1.509,0,0,0,65.8,9.961H53.726a1.509,1.509,0,0,0-1.509,1.509V46.181H44.663c-.016-1.561-.057-3.1-.121-4.592a97.072,97.072,0,0,0-1.179-12.075,7.547,7.547,0,0,0,2.06-9.843l-5.231-9.06a1.509,1.509,0,0,0-2.614,0l-5.233,9.06a7.545,7.545,0,0,0,1.661,9.524,95.8,95.8,0,0,0-1.272,12.391c-.068,1.509-.111,3.048-.127,4.6H25.052V23.543a1.5,1.5,0,0,0-.149-.651c0-.008-.006-.016-.01-.024L18.856,10.795a1.509,1.509,0,0,0-2.7,0L10.12,22.868c0,.008-.006.016-.009.024a1.5,1.5,0,0,0-.15.651V46.181H3.018V7.546A4.532,4.532,0,0,1,7.546,3.018Zm47.69,43.162v-33.2h9.055V16H62.782a1.509,1.509,0,0,0,0,3.018h1.509v4.528H62.782a1.509,1.509,0,1,0,0,3.018h1.509v4.528H62.782a1.509,1.509,0,0,0,0,3.018h1.509v6.037H62.782a1.509,1.509,0,0,0,0,3.018h1.509v3.018Zm-16.35-15.2a7.556,7.556,0,0,0,1.628-.181c.28,1.8.692,4.971.935,9.34H35.831c.255-4.366.686-7.592.984-9.448a7.555,7.555,0,0,0,2.07.288Zm0-3.018A4.533,4.533,0,0,1,34.96,21.18l3.926-6.8,3.923,6.8a4.53,4.53,0,0,1-3.923,6.787Zm-3.193,15.2h5.889c.032.992.054,2,.064,3.018H35.625c.011-1.012.034-2.02.068-3.018ZM19.016,46.181V25.052h3.018V46.181Zm-6.037,0V25.052H16V46.181Zm.933-24.147,3.595-7.19,3.595,7.19ZM51.958,74.251H25.309a4.536,4.536,0,0,1,4.27-3.018H47.69A4.535,4.535,0,0,1,51.958,74.251Zm-8.8-6.037H34.107V61.272h9.055Zm26.561-9.961H7.546a4.532,4.532,0,0,1-4.528-4.528V49.2H74.251v4.528A4.532,4.532,0,0,1,69.724,58.254Zm0,0" fill="url(#linear-gradient)"/>
  <path id="Path_294" data-name="Path 294" d="M216.564,346h-9.055a1.509,1.509,0,1,0,0,3.018h9.055a1.509,1.509,0,1,0,0-3.018Zm0,0" transform="translate(-174.911 -293.783)" fill="url(#linear-gradient)"/>
</svg>
