<svg xmlns="http://www.w3.org/2000/svg" width="22.58" height="22.375" viewBox="0 0 22.58 22.375">
  <defs>
    <style>
      .cls-1, .cls-2 {
        fill: none;
      }

      .cls-2 {
        stroke: #fff;
        stroke-width: 3px;
      }

      .cls-3, .cls-4 {
        stroke: none;
      }

      .cls-4 {
        fill: #fff;
      }
    </style>
  </defs>
  <g id="Group_5" data-name="Group 5" transform="translate(-824.215 326.035)">
    <g id="Path_4" data-name="Path 4" class="cls-1" transform="translate(824.215 -315.788) rotate(-45)">
      <path class="cls-3" d="M7.246,0A7.246,7.246,0,1,1,0,7.246,7.246,7.246,0,0,1,7.246,0Z"/>
      <path class="cls-4" d="M 7.245781421661377 3.000000953674316 C 4.904651641845703 3.000000953674316 3.000000953674316 4.904651641845703 3.000000953674316 7.245781421661377 C 3.000000953674316 9.586911201477051 4.904651641845703 11.49156188964844 7.245781421661377 11.49156188964844 C 9.586911201477051 11.49156188964844 11.49156188964844 9.586911201477051 11.49156188964844 7.245781421661377 C 11.49156188964844 4.904651641845703 9.586911201477051 3.000000953674316 7.245781421661377 3.000000953674316 M 7.245781421661377 9.5367431640625e-07 C 11.24751091003418 9.5367431640625e-07 14.49156188964844 3.244050979614258 14.49156188964844 7.245781421661377 C 14.49156188964844 11.24751091003418 11.24751091003418 14.49156188964844 7.245781421661377 14.49156188964844 C 3.244050979614258 14.49156188964844 9.5367431640625e-07 11.24751091003418 9.5367431640625e-07 7.245781421661377 C 9.5367431640625e-07 3.244041442871094 3.244041442871094 9.5367431640625e-07 7.245781421661377 9.5367431640625e-07 Z"/>
    </g>
    <line id="Line_1" data-name="Line 1" class="cls-2" y2="9.564" transform="translate(838.971 -311.484) rotate(-45)"/>
  </g>
</svg>
