<svg xmlns="http://www.w3.org/2000/svg" xmlns:xlink="http://www.w3.org/1999/xlink" width="77.27" height="77.268" viewBox="0 0 77.27 77.268">
  <defs>
    <linearGradient id="linear-gradient" x1="2.211" x2="-1.219" y2="1.855" gradientUnits="objectBoundingBox">
      <stop offset="0" stop-color="#ff63b9"/>
      <stop offset="1" stop-color="#ba37d2"/>
    </linearGradient>
  </defs>
  <path id="Path_287" data-name="Path 287" d="M76.459,47.738a1.3,1.3,0,0,0-1.417.309l-5.5,5.781V19.488h.006L74.8,13.822A1.288,1.288,0,0,0,74.726,12h0l-1.889-1.758L75.46,7.409a1.288,1.288,0,0,0-.073-1.819L69.721.342A1.287,1.287,0,0,0,67.9.413L58.745,10.3H14.166A6.447,6.447,0,0,0,7.727,3.86H6.439A6.447,6.447,0,0,0,0,10.3V65.676a1.288,1.288,0,0,0,1.288,1.288H20.783l-2.7,3.248a1.288,1.288,0,0,0,.166,1.813l5.938,4.944A1.288,1.288,0,0,0,26,76.8h0l6.591-7.919a3.818,3.818,0,0,0,.845-1.92h23.6l-7.74,8.128a1.288,1.288,0,0,0,.934,2.175H75.981a1.288,1.288,0,0,0,1.288-1.288V48.935a1.289,1.289,0,0,0-.81-1.2ZM72.032,13,69.542,15.7V13.8l1.545-1.674Zm-5.065-.229v.018L56.075,24.564l-3.782-3.5L65.413,6.885l3.782,3.5-2.214,2.39ZM53.6,25.782l-2.962.864.633-3.021ZM68.913,3.1l3.781,3.5L70.944,8.5,67.163,5ZM6.439,6.436H7.727A3.863,3.863,0,0,1,11.59,10.3V59.271a6.373,6.373,0,0,0-3.864-1.322H6.439a6.372,6.372,0,0,0-3.864,1.322V10.3A3.863,3.863,0,0,1,6.439,6.436Zm0,54.088H7.727a3.864,3.864,0,0,1,3.864,3.864H2.575a3.864,3.864,0,0,1,3.864-3.864ZM30.61,67.237l-.824.989-3.959-3.3.823-.99a1.287,1.287,0,0,1,1.813-.166h0l1.979,1.644a1.288,1.288,0,0,1,.167,1.813h0Zm-5.768,6.929-3.959-3.3,3.3-3.96,3.959,3.3Zm8.05-9.777a3.824,3.824,0,0,0-.8-.945L30.112,61.8a3.863,3.863,0,0,0-5.441.5l-1.747,2.1H14.166V12.875h42.2l-6.834,7.386a1.251,1.251,0,0,0-.229.375c-.015.037-.027.072-.04.111s-.032.077-.041.118L47.68,28.216a1.288,1.288,0,0,0,1.621,1.5l7.212-2.1c.034-.011.062-.03.094-.041a1.053,1.053,0,0,0,.1-.045,1.274,1.274,0,0,0,.386-.272l9.873-10.67V56.532l-7.482,7.856Zm41.8,10.3H53.229L74.694,52.154Zm0,0" transform="translate(0 0)" fill="url(#linear-gradient)"/>
</svg>
