<svg id="prototyping" xmlns="http://www.w3.org/2000/svg" xmlns:xlink="http://www.w3.org/1999/xlink" width="77.27" height="74.694" viewBox="0 0 77.27 74.694">
  <defs>
    <linearGradient id="linear-gradient" x1="2.211" x2="-1.219" y2="1.855" gradientUnits="objectBoundingBox">
      <stop offset="0" stop-color="#ff63b9"/>
      <stop offset="1" stop-color="#ba37d2"/>
    </linearGradient>
  </defs>
  <path id="Path_295" data-name="Path 295" d="M70.83,0H47.649A6.447,6.447,0,0,0,41.21,6.439v6.439H15.453V10.3A7.727,7.727,0,0,0,0,10.3V66.967a7.734,7.734,0,0,0,7.727,7.727H64.391a7.734,7.734,0,0,0,7.727-7.727v-2.7a6.451,6.451,0,0,0,5.151-6.31V6.439A6.447,6.447,0,0,0,70.83,0ZM47.649,2.576H70.83a3.863,3.863,0,0,1,3.864,3.864V10.3H43.786V6.439a3.863,3.863,0,0,1,3.864-3.864ZM74.694,47.65H43.786V12.878H74.694ZM41.21,27.7l-14.085-5.8H41.21ZM39.117,29.62,22.055,36.65a1.255,1.255,0,0,1-.162-.591V23.181a1.253,1.253,0,0,1,.162-.591Zm2.093,1.924v5.8H27.125ZM7.726,5.151A5.151,5.151,0,0,1,12.878,10.3v45.77a7.681,7.681,0,0,0-10.3,0V10.3A5.151,5.151,0,0,1,7.726,5.151ZM64.391,72.118H7.726a5.151,5.151,0,0,1-5.151-5.151V61.816a5.151,5.151,0,1,1,10.3,0,1.288,1.288,0,0,0,2.576,0V15.454H41.21v3.864H23.181a3.816,3.816,0,0,0-1.95.547c-.017,0-.031.018-.048.026-.1.06-.19.12-.281.187a1.187,1.187,0,0,0-.12.1,3.842,3.842,0,0,0-1.466,3.006V36.059a3.846,3.846,0,0,0,1.5,3.031,1.3,1.3,0,0,0,.29.216,3.837,3.837,0,0,0,2.077.616H41.21v3.863H33.483a1.288,1.288,0,1,0,0,2.576H41.21v3.864h-20.6a1.288,1.288,0,1,0,0,2.576h20.6v5.151a6.447,6.447,0,0,0,6.439,6.439H69.542v2.576a5.152,5.152,0,0,1-5.151,5.151Zm6.439-10.3H47.649a3.864,3.864,0,0,1-3.864-3.864V50.225H74.694v7.727a3.864,3.864,0,0,1-3.864,3.864Zm0,0" transform="translate(0)" fill="url(#linear-gradient)"/>
  <path id="Path_296" data-name="Path 296" d="M368.221,36.708h5.152a1.288,1.288,0,0,0,0-2.576h-5.152a1.288,1.288,0,0,0,0,2.576Zm0,0" transform="translate(-311.557 -28.982)" fill="url(#linear-gradient)"/>
  <path id="Path_297" data-name="Path 297" d="M372.084,341.332h-2.576a2.576,2.576,0,0,0-2.576,2.576v2.576a2.576,2.576,0,0,0,2.576,2.576h2.576a2.576,2.576,0,0,0,2.576-2.576v-2.576A2.576,2.576,0,0,0,372.084,341.332Zm-2.576,5.151v-2.576h2.576v2.576Zm0,0" transform="translate(-311.557 -289.819)" fill="url(#linear-gradient)"/>
  <path id="Path_298" data-name="Path 298" d="M308.067,118.478c.018.018.038.031.058.048a2.548,2.548,0,0,0,1.65.614H330.38a2.56,2.56,0,0,0,1.654-.617c.018-.015.036-.028.054-.045a2.56,2.56,0,0,0,.868-1.914V104.974a2.56,2.56,0,0,0-.993-2.017l-.034-.028a2.558,2.558,0,0,0-1.549-.531H309.775a2.552,2.552,0,0,0-1.545.534l-.027.022a2.562,2.562,0,0,0-1,2.02v11.591A2.56,2.56,0,0,0,308.067,118.478Zm22.313-2.925-7.831-4.784,7.831-4.783Zm-3.284,1.011H313.059l7.019-4.286Zm-7.018-7.3-7.019-4.286H327.1Zm-2.472,1.509-7.831,4.783v-9.566Zm0,0" transform="translate(-260.837 -86.944)" fill="url(#linear-gradient)"/>
  <path id="Path_299" data-name="Path 299" d="M317.022,232.974h5.151a1.288,1.288,0,1,0,0-2.576h-5.151a1.288,1.288,0,0,0,0,2.576Zm0,0" transform="translate(-268.085 -195.628)" fill="url(#linear-gradient)"/>
  <path id="Path_300" data-name="Path 300" d="M396.878,230.4h-11.59a1.288,1.288,0,1,0,0,2.576h11.59a1.288,1.288,0,1,0,0-2.576Zm0,0" transform="translate(-326.048 -195.627)" fill="url(#linear-gradient)"/>
  <path id="Path_301" data-name="Path 301" d="M338.915,264.535H317.022a1.288,1.288,0,0,0,0,2.576h21.893a1.288,1.288,0,1,0,0-2.576Zm0,0" transform="translate(-268.085 -224.612)" fill="url(#linear-gradient)"/>
  <path id="Path_302" data-name="Path 302" d="M129.288,292.708h6.439a1.288,1.288,0,1,0,0-2.576h-6.439a1.288,1.288,0,1,0,0,2.576Zm0,0" transform="translate(-108.682 -246.347)" fill="url(#linear-gradient)"/>
</svg>
