<svg xmlns="http://www.w3.org/2000/svg" width="701.738" height="575.31" viewBox="0 0 701.738 575.31"><path d="M765.033,511.453l5.556-1.062,1.589-.336A45.746,45.746,0,0,1,799.8,425.188L792.82,442.7l17.019-15.43h.122A45.754,45.754,0,0,1,839,485.1c-.275.825-.6,1.62-.917,2.423a54.692,54.692,0,0,0,13.221-9.224c7.6-7.558,11.647-17.867,16.14-30.569,8.918-25.15,17.478-50.652,25.67-76.208A45.731,45.731,0,0,1,870.7,316.555a39.621,39.621,0,0,1,1.528-3.875q.191-.474.413-.94c.558-1.207,1.146-2.392,1.8-3.531.1-.183.222-.359.329-.543.573-.963,1.169-1.9,1.8-2.8.237-.344.466-.68.711-1.016.718-.971,1.46-1.926,2.247-2.828.267-.306.543-.588.81-.886.611-.665,1.23-1.307,1.872-1.933.336-.329.665-.657,1.016-.971.084-.084.168-.176.26-.252h0a45.731,45.731,0,0,1,58.463-2.415l-9.079,22.8,16.813-15.284a45.494,45.494,0,0,1,2.705,53.839h.046c-.176.275-.382.535-.573.81-.352.512-.711,1.009-1.078,1.528-.474.634-.971,1.253-1.475,1.857-.382.459-.764.917-1.154,1.36-.573.642-1.185,1.253-1.8,1.865-.359.352-.7.726-1.07,1.07q-1.452,1.345-3,2.56c-.367.283-.764.527-1.123.8-.726.535-1.46,1.062-2.216,1.528-.474.306-.955.581-1.437.871-.7.413-1.391.81-2.109,1.185-.5.267-1.016.527-1.528.764-.764.352-1.483.68-2.232.993-.5.206-1.009.42-1.528.611-.848.313-1.7.6-2.575.856-.436.138-.864.29-1.307.413-1.292.359-2.606.665-3.936.9-.252.046-.512.069-.764.115-1.108.176-2.216.329-3.332.428-.481.046-.97.061-1.452.084-.9.053-1.811.092-2.721.084-.535,0-1.07,0-1.6-.038-.886,0-1.773-.092-2.667-.176-.527-.054-1.055-.107-1.582-.176-.955-.122-1.911-.3-2.866-.489h-.183q-5.189,16.179-10.584,32.281a45.708,45.708,0,0,1,66.38,4.219l-15.536,17.852,21.245-8.949a45.554,45.554,0,0,1,2.484,34.787,44.746,44.746,0,0,1-5.594,11.349,45.731,45.731,0,0,1-82.994-18.509c-.382,1.085-.764,2.178-1.131,3.263-3.974,11.2-8.911,25.127-19.167,35.33-6.954,6.878-15.582,11.379-23.867,15.177q-8.093,3.707-16.415,6.878a45.853,45.853,0,0,1-20.351,6.878q-13.152,3.92-26.633,6.572l-5.6,1.078c-5.029.955-10.187,1.941-15.284,3.057.764.206,1.528.405,2.232.65a45.746,45.746,0,0,1,31.356,43.981l-35.009,11.463,31.952,4.463a45.769,45.769,0,0,1-75.994,14.971l1.032,3.225c.688,2.132,1.368,4.257,2.025,6.358,8.926,28.658,5.747,51.386-8.964,64.011l-8.276-9.66c14.314-12.289,9.339-36.95,5.1-50.561q-.978-3.1-1.995-6.251c-5.8-18.043-12.38-38.486-4.715-57.538C702.367,523.39,737.109,516.772,765.033,511.453Z" transform="translate(-269.714 -123.475)" fill="#fc6483"/><path d="M315.811,367.833l-4.8-2.988-1.368-.879a45.746,45.746,0,0,0,4.624-89.131l.237,18.853-10.363-20.5h-.122a45.746,45.746,0,0,0-47.832,43.56c-.038.871,0,1.735,0,2.591a54.315,54.315,0,0,1-9.041-13.343c-4.387-9.782-4.471-20.855-4.119-34.313.688-26.679,1.834-53.556,3.34-80.35a45.723,45.723,0,0,0,40.618-43.285c.069-1.4.046-2.782,0-4.15a6.522,6.522,0,0,0-.053-1.024c-.084-1.33-.214-2.652-.413-3.943a4.608,4.608,0,0,0-.115-.634c-.191-1.093-.42-2.178-.68-3.256-.1-.4-.191-.8-.306-1.2-.321-1.162-.673-2.293-1.078-3.447-.138-.382-.3-.764-.443-1.116-.329-.841-.68-1.658-1.055-2.468-.191-.428-.39-.856-.6-1.276-.053-.115-.1-.222-.153-.329h0a45.7,45.7,0,0,0-53.778-23.186l.313,24.531L218.381,106.28a45.471,45.471,0,0,0-21.811,49.292h-.054c.069.321.176.634.252.955.145.611.3,1.207.466,1.8q.321,1.146.711,2.293c.191.566.374,1.131.588,1.689.306.81.657,1.6,1.009,2.384.214.459.4.932.619,1.383q.871,1.781,1.888,3.462c.237.4.5.764.764,1.154.489.764.986,1.528,1.528,2.239.336.451.688.879,1.032,1.322.5.634,1.009,1.261,1.528,1.865.382.428.764.848,1.162,1.269.558.588,1.139,1.162,1.727,1.727.4.374.764.764,1.2,1.116.68.6,1.383,1.162,2.094,1.727.359.275.7.573,1.07.848,1.085.764,2.2,1.528,3.355,2.254.222.138.451.245.673.374.963.566,1.949,1.1,2.958,1.6.428.214.879.4,1.322.6.825.374,1.658.764,2.507,1.055.5.191,1,.367,1.528.543.848.283,1.7.543,2.56.764q.764.214,1.528.413c.94.222,1.9.405,2.851.573h.191q-.948,16.966-1.689,33.931a45.708,45.708,0,0,0-63.483-19.87L176.54,227.2,159.911,211.23a45.6,45.6,0,0,0-14.788,31.585,44.935,44.935,0,0,0,1.162,12.6,45.723,45.723,0,0,0,84.11,12.457c0,1.154-.076,2.293-.107,3.454-.306,11.876-.688,26.656,5.235,39.854,4.012,8.941,10.47,16.2,16.813,22.713q6.236,6.358,12.869,12.3a45.746,45.746,0,0,0,16.515,13.756c7.252,5.586,14.757,10.837,22.514,15.682l4.845,3.011c4.348,2.7,8.811,5.464,13.19,8.353-.764-.076-1.528-.16-2.293-.2a45.761,45.761,0,0,0-45.035,29.8l28.574,23.255-31.44-7.291a45.769,45.769,0,0,0,65.6,41.161l-2.125,2.644c-1.406,1.75-2.8,3.485-4.173,5.212-18.6,23.553-23.775,45.922-14.566,62.971l11.2-6.053c-8.964-16.6,4.524-37.836,13.358-49.032,1.337-1.7,2.713-3.4,4.1-5.113,11.876-14.765,25.349-31.5,25.02-52.028C369.994,401.413,339.952,382.789,315.811,367.833Z" transform="translate(-141.852 -79.846)" fill="#fc6483"/><ellipse cx="333.963" cy="38.211" rx="333.963" ry="38.211" transform="translate(0 498.888)" fill="#fc6483"/><rect width="438.729" height="528.334" rx="19.8" transform="translate(116.123)" fill="#3f3d56"/><rect width="396.766" height="421.741" transform="translate(135.656 53.296)" fill="#302f45"/><circle cx="15.445" cy="15.445" r="15.445" transform="translate(320.046 487.402)" fill="#fff"/><path d="M577.594,119.1a7.344,7.344,0,1,1,7.344-7.344A7.344,7.344,0,0,1,577.594,119.1Z" transform="translate(-242.103 -80.857)" fill="#fff"/><path d="M577.483,104.679a6.962,6.962,0,1,1-6.954,6.954,6.962,6.962,0,0,1,6.954-6.954m0-.764a5.573,5.573,0,1,0,.023-.015Z" transform="translate(-241.992 -80.737)" fill="#fff"/><rect width="23.691" height="3.821" transform="translate(158.017 171.949)" fill="#3f3d56"/><rect width="23.691" height="3.821" transform="translate(158.017 199.461)" fill="#3f3d56"/><rect width="23.691" height="3.821" transform="translate(158.017 226.972)" fill="#3f3d56"/><rect width="23.691" height="3.821" transform="translate(158.017 254.484)" fill="#3f3d56"/><rect width="23.691" height="3.821" transform="translate(158.017 281.996)" fill="#3f3d56"/><rect width="17.577" height="83.888" transform="translate(284.495 257.755)" fill="#ff63b9" opacity="0.3"/><rect width="23.691" height="3.821" transform="translate(158.017 309.508)" fill="#3f3d56"/><rect width="23.691" height="3.821" transform="translate(158.017 337.02)" fill="#3f3d56"/><line y1="164.307" transform="translate(189.35 174.241)" fill="none" stroke="#3f3d56" stroke-miterlimit="10" stroke-width="1"/><line x2="320.589" transform="translate(188.968 173.859)" fill="none" stroke="#3f3d56" stroke-miterlimit="10" stroke-width="1"/><line x2="319.825" transform="translate(189.732 201.371)" fill="none" stroke="#3f3d56" stroke-miterlimit="10" stroke-width="1"/><line x2="319.825" transform="translate(189.732 228.883)" fill="none" stroke="#3f3d56" stroke-miterlimit="10" stroke-width="1"/><line x2="319.825" transform="translate(189.732 256.395)" fill="none" stroke="#3f3d56" stroke-miterlimit="10" stroke-width="1"/><line x2="319.825" transform="translate(189.732 283.907)" fill="none" stroke="#3f3d56" stroke-miterlimit="10" stroke-width="1"/><line x2="319.825" transform="translate(189.732 311.418)" fill="none" stroke="#3f3d56" stroke-miterlimit="10" stroke-width="1"/><line x2="320.589" transform="translate(188.968 338.93)" fill="none" stroke="#3f3d56" stroke-miterlimit="10" stroke-width="1"/><rect width="17.577" height="26.748" transform="translate(211.13 311.8)" fill="#ee5085"/><rect width="17.577" height="57.011" transform="translate(251.252 281.537)" fill="#ee5085"/><rect width="17.577" height="109.948" transform="translate(331.494 228.6)" fill="#ee5085"/><rect width="17.577" height="136.795" transform="translate(371.616 201.753)" fill="#ee5085"/><rect width="17.577" height="109.948" transform="translate(411.737 228.6)" fill="#ee5085"/><rect width="17.577" height="164.452" transform="translate(451.858 174.096)" fill="#ee5085"/><path d="M560.346,403.25c-8.093-2.1-16.461-4.226-24.73-2.958a4.73,4.73,0,0,0-2.744,1.108,3.323,3.323,0,0,0-.076,4.081,7.245,7.245,0,0,0,3.607,2.438c3.867,1.406,8.07,1.528,12.182,1.6s8.055.16,11.937-.8a4.975,4.975,0,0,0,2.423-1.154C565.145,405.328,562.218,403.739,560.346,403.25Z" transform="translate(-233.116 -150.531)" fill="#a0616a"/><path d="M629.425,423.8a39.274,39.274,0,0,1-8.093-.512,55.072,55.072,0,0,1-7.031-1.941l-8.322-2.7a108.9,108.9,0,0,1-13.221-4.929c-7.344-3.477-14.039-8.651-22-10.256-1.437-.29-3.255-.3-4,.963a3.821,3.821,0,0,0-.367,1.949l-.046,5.869a1.726,1.726,0,0,0,1.032,1.9c7.558,4.853,16.11,8.2,22.972,13.993,2.079,1.75,3.982,3.714,6.167,5.35a25.173,25.173,0,0,0,9.622,4.364c4.868,1.062,10.149.7,14.558,3.011,2.018,1.047,3.821,2.644,6.06,3.057a12.179,12.179,0,0,0,5.709-.848c3.057-.971,6.2-2.033,8.269-4.432,2.644-3.057,2.828-7.474,2.873-11.517,0-1.146.764-5.862.054-6.74-1.016-1.207-2.6.581-3.6,1.139A22.463,22.463,0,0,1,629.425,423.8Z" transform="translate(-241.18 -151.33)" fill="#e6e6f0"/><path d="M676.231,390.86s5.1,21.742,8.834,25.143-26.5,10.882-26.5,10.882,6.442-23.8,3.385-27.871S676.231,390.86,676.231,390.86Z" transform="translate(-262.927 -148.397)" fill="#a0616a"/><path d="M676.231,390.86s5.1,21.742,8.834,25.143-26.5,10.882-26.5,10.882,6.442-23.8,3.385-27.871S676.231,390.86,676.231,390.86Z" transform="translate(-262.927 -148.397)" opacity="0.1"/><path d="M613.886,760.415c-1.658.252-3.355,0-5.013.2a9.873,9.873,0,0,0-6.114,3.1,2.614,2.614,0,0,0-.879,1.933,2.468,2.468,0,0,0,.711,1.337,11.052,11.052,0,0,0,5.976,3.057,47.492,47.492,0,0,0,10.049.764q12.564.069,25.135.115a20.167,20.167,0,0,0-.26-9.086,5.175,5.175,0,0,0-1.047-2.239,5.922,5.922,0,0,0-1.911-1.238l-5.166-2.468c-4.1-1.964-7.352-3.424-11.463-1C620.573,756.785,617.768,759.819,613.886,760.415Z" transform="translate(-249.561 -233.931)" fill="#3c354c"/><path d="M613.886,760.415c-1.658.252-3.355,0-5.013.2a9.873,9.873,0,0,0-6.114,3.1,2.614,2.614,0,0,0-.879,1.933,2.468,2.468,0,0,0,.711,1.337,11.052,11.052,0,0,0,5.976,3.057,47.492,47.492,0,0,0,10.049.764q12.564.069,25.135.115a20.167,20.167,0,0,0-.26-9.086,5.175,5.175,0,0,0-1.047-2.239,5.922,5.922,0,0,0-1.911-1.238l-5.166-2.468c-4.1-1.964-7.352-3.424-11.463-1C620.573,756.785,617.768,759.819,613.886,760.415Z" transform="translate(-249.561 -233.931)" opacity="0.1"/><path d="M670.717,785.212a6.725,6.725,0,0,1-.237,2.736c-.688,1.8-2.744,2.629-4.585,3.156-8.406,2.361-17.256,2.552-25.983,2.728-6.549.13-13.29.229-19.411-2.094a8.7,8.7,0,0,1-3.37-2.018,3.821,3.821,0,0,1-1.062-3.63c.481-1.62,2.186-2.491,3.722-3.187l8.368-3.768,16.125-7.26a14.771,14.771,0,0,1,6.3-1.758c2.667.084,5.044,1.6,7.428,2.8a35.465,35.465,0,0,0,5.35,2.17c1.628.5,3.913.566,5.349,1.437C671.321,778.1,670.58,782.629,670.717,785.212Z" transform="translate(-252.882 -237.819)" fill="#3c354c"/><path d="M617.469,578.315c-4.226,11.937-8.475,23.958-10.539,36.453-.764,4.471-1.192,8.98-2.01,13.435-.764,4.2-1.865,8.483-1.1,12.686.5,2.744,1.758,5.281,2.705,7.894,1.261,3.477,1.979,7.13,3.172,10.63,1.849,5.426,4.807,10.409,6.687,15.819,1.826,5.25,2.637,10.882,5.181,15.819,1.528,2.935,3.615,5.586,4.585,8.727a13.527,13.527,0,0,1-3.385,13.389c.451,2.041,2.828,3.057,4.784,3.821l7.145,2.636c2.721,1,5.785,2,8.406.841,3.867-1.689,4.585-6.794,4.471-11-.382-10.256-2.843-20.313-5.3-30.278-2.293-9.171-4.516-18.341-7.222-27.412-1.123-3.745-2.293-7.474-3.2-11.288A72.409,72.409,0,0,1,635,597.795c3.057-7.642.336-17.057.68-25.318l-10.256-1.888c-2.018-.367-4.471-.589-5.747,1.016S618.2,576.275,617.469,578.315Z" transform="translate(-249.957 -190.712)" fill="#575a89"/><path d="M617.469,578.315c-4.226,11.937-8.475,23.958-10.539,36.453-.764,4.471-1.192,8.98-2.01,13.435-.764,4.2-1.865,8.483-1.1,12.686.5,2.744,1.758,5.281,2.705,7.894,1.261,3.477,1.979,7.13,3.172,10.63,1.849,5.426,4.807,10.409,6.687,15.819,1.826,5.25,2.637,10.882,5.181,15.819,1.528,2.935,3.615,5.586,4.585,8.727a13.527,13.527,0,0,1-3.385,13.389c.451,2.041,2.828,3.057,4.784,3.821l7.145,2.636c2.721,1,5.785,2,8.406.841,3.867-1.689,4.585-6.794,4.471-11-.382-10.256-2.843-20.313-5.3-30.278-2.293-9.171-4.516-18.341-7.222-27.412-1.123-3.745-2.293-7.474-3.2-11.288A72.409,72.409,0,0,1,635,597.795c3.057-7.642.336-17.057.68-25.318l-10.256-1.888c-2.018-.367-4.471-.589-5.747,1.016S618.2,576.275,617.469,578.315Z" transform="translate(-249.957 -190.712)" opacity="0.1"/><path d="M669.9,571.226c-.267,3.676-.566,7.459-2.232,10.7-1.016,2-2.491,3.729-3.645,5.655-3.057,5.189-3.615,11.463-3.737,17.523-.122,6.251.1,12.5.329,18.746a28.85,28.85,0,0,0,.589,5.739c.382,1.582,1.024,3.1,1.391,4.677.879,3.821.069,7.864.6,11.761a53.874,53.874,0,0,0,2.423,8.628,44.048,44.048,0,0,1,1.842,13.565c-.275,12.426,3.645,24.264,3.737,36.682,0,4.28-.153,8.567.206,12.839.382,4.646,1.4,9.216,1.9,13.855.115,1.07.13,2.293-.7,3a3.263,3.263,0,0,1-2.086.535,24.969,24.969,0,0,1-7.871-.764c-2.293-.7-4.326-1.918-6.549-2.721-4.15-1.528-9.293-1.849-11.67-5.564a2.185,2.185,0,0,1-.405-1.07c0-1.055,1.123-1.7,1.658-2.621a4.1,4.1,0,0,0,.443-1.934c.206-4.891-1.987-9.507-3.447-14.176a96.3,96.3,0,0,1-2.873-13.9c-1.528-9.7-3.057-19.6-1.46-29.292.39-2.384.886-5.082-.573-7a15.949,15.949,0,0,0-2.2-1.979,8.536,8.536,0,0,1-2.82-6.259c0-7.642-3.485-15.284-3.821-22.926-.2-4.417.069-8.842-.138-13.259-.55-11.662-4.356-22.881-7.826-34.031a16.7,16.7,0,0,1-1-4.975,5.778,5.778,0,0,1,1.911-4.585c5.823-4.669,14.451-6.236,20.9-2.476,1.284.764,2.468,1.643,3.821,2.293C653.616,571.57,662.787,567.7,669.9,571.226Z" transform="translate(-253.824 -189.103)" fill="#575a89"/><circle cx="16.645" cy="16.645" r="16.645" transform="translate(387.488 228.875)" fill="#a0616a"/><path d="M620.777,539.409a6.877,6.877,0,0,0,2.468,1.6l5.074,2.293a9.306,9.306,0,0,0,2.553.948,10.369,10.369,0,0,0,3.385-.245,90.178,90.178,0,0,1,35.307.665c3.737-5.6,4.066-12.839,3.057-19.487-.543-3.531-1.421-7.176-.443-10.615.413-1.475,1.162-2.835,1.582-4.31,1.146-4.02-.237-8.353.4-12.487.764-5.067,4.455-9.171,6.481-13.863a44.841,44.841,0,0,0,2.468-9q1.123-5.632,2.293-11.242a54.747,54.747,0,0,0,1.528-12.526c-.176-6.427-2.53-12.564-4.853-18.563-.978-2.522-2.117-5.242-4.471-6.588-2.881-1.643-6.511-.65-9.583.588-3.982,1.6-7.917,3.546-12.166,4.356-1.834.352-4.348-.283-6.007.206-1.421.42-2.392,2.339-3.233,3.508a62.137,62.137,0,0,0-10.034,21.581c-1.933,7.856-2.369,16.209-5.946,23.461a48.151,48.151,0,0,1-2.721,4.662c-2.063,3.194-4.295,6.289-5.693,9.813-2.155,5.441-2.14,11.41-2,17.3,0,.971.053,1.926.069,2.889q.229,9.988-.443,19.946C619.7,536.069,619.623,538.049,620.777,539.409Z" transform="translate(-253.778 -156.475)" fill="#e6e6f0"/><path d="M553.738,517.714c-8.361.29-16.989.543-24.784-2.5a4.738,4.738,0,0,1-2.438-1.681,3.337,3.337,0,0,1,.818-4,7.261,7.261,0,0,1,4.05-1.59c4.073-.535,8.2.283,12.227,1.1s7.894,1.6,11.463,3.378a5.037,5.037,0,0,1,2.109,1.658C558.9,516.751,555.672,517.645,553.738,517.714Z" transform="translate(-231.705 -175.964)" fill="#a0616a"/><path d="M620.314,518.966c1.849,0,3.691-.092,5.525-.2a26.177,26.177,0,0,0,6.4-.963c3.133-1,5.816-3.057,8.368-5.113a178.5,178.5,0,0,0,22.246-21.444c2.247-2.575,4.455-5.281,5.655-8.483,1.467-3.905,1.314-8.215,1.009-12.38-.2-2.728-.474-5.541-1.758-7.963a7.642,7.642,0,0,0-5.349-4.119l2.881.107c-2.766-1.719-6.282-1.483-9.53-1.192a15.925,15.925,0,0,0-6.5,1.528c-2.445,1.33-4.043,3.821-5.349,6.236-4.364,7.956-7.153,16.866-12.824,23.951a14.522,14.522,0,0,1-2.583,2.629c-.153.115-.313.222-.474.329-2.063,3.194-4.295,6.289-5.693,9.813C620.161,507.105,620.177,513.074,620.314,518.966Z" transform="translate(-253.895 -163.995)" opacity="0.1"/><path d="M647.477,454.232c2.728-.206,5.265,1.75,6.542,4.173s1.528,5.227,1.758,7.963c.306,4.165.458,8.475-1.009,12.38-1.2,3.2-3.408,5.907-5.655,8.483A179.051,179.051,0,0,1,626.9,508.675c-2.552,2.071-5.235,4.112-8.368,5.113a26.178,26.178,0,0,1-6.4.963c-8.192.481-16.591.267-24.3-2.522-6.114-2.193-11.746-5.969-18.188-6.366-1.582-.1-3.256,0-4.662-.764-2.583-1.383-3.057-4.883-2.828-7.8a2.094,2.094,0,0,1,2.14-2.491c12.885-1.6,26.335,1.674,38.753-2.125a71.9,71.9,0,0,0,8.261-3.309,18.339,18.339,0,0,0,3.47-1.88,14.224,14.224,0,0,0,2.575-2.629c5.671-7.084,8.468-16,12.831-23.951,1.337-2.445,2.935-4.906,5.35-6.236a17.256,17.256,0,0,1,6.5-1.528c3.248-.29,6.756-.527,9.53,1.192" transform="translate(-240.18 -163.035)" fill="#e6e6f0"/><path d="M675.808,389.046c-.764.94-1.246,2.086-2.086,2.942s-2.293,1.376-3.256.688c-1.49-1.032-.711-3.561-1.865-4.952-.65-.764-1.758-1.016-2.552-1.658-1.88-1.528-1.376-4.708-3.057-6.488s-4.318-1.383-6.488-.6-4.394,1.933-6.656,1.475c-3.2-.657-4.868-4.157-5.785-7.3s-1.528-6.588,0-9.43c1.261-2.361,3.821-3.821,6.351-4.585a70.762,70.762,0,0,1,7.917-1.376c3.508-.634,6.878-1.842,10.462-2.193s7.443.306,9.935,2.843c3.684,3.737,3.057,9.835,4.891,14.749,1.055,2.789,2.942,5.2,4.066,7.956,1.979,4.891,1,11.272-3.363,14.245a3.507,3.507,0,0,1-2.392.764c-1.811-.26-2.476-2.552-2.377-4.379C679.805,388.427,679.026,385,675.808,389.046Z" transform="translate(-259.287 -140.056)" fill="#3f3d56"/><rect width="17.577" height="83.888" transform="translate(291.373 254.698)" fill="#ee5085"/><path d="M219.557,738.215c-2.293-4.211.306-9.369,3.271-13.129s6.58-7.642,6.5-12.442c-.107-6.878-7.405-10.944-13.244-14.589a64.2,64.2,0,0,1-11.884-9.56,17.416,17.416,0,0,1-3.661-4.891c-1.2-2.69-1.169-5.747-1.093-8.7q.374-14.719,1.452-29.407" transform="translate(-154.667 -208.437)" fill="none" stroke="#3f3d56" stroke-miterlimit="10" stroke-width="4"/><path d="M186.86,641.643a10.7,10.7,0,0,1,5.35-8.788l2.4,4.746-.069-5.747a10.7,10.7,0,1,1-7.642,9.79Z" transform="translate(-151.706 -205.114)" fill="#57b894"/><path d="M211.522,734.975a10.7,10.7,0,1,0-.52-8.636l6.695,5.449-7.367-1.7a10.607,10.607,0,0,0,1.192,4.891Z" transform="translate(-157.24 -225.854)" fill="#57b894"/><path d="M215.672,705.925a10.7,10.7,0,0,0,11.219-10.218,10.562,10.562,0,0,0-.925-4.883,10.745,10.745,0,0,0-6.878-5.946l.053,4.425-2.43-4.807h0a10.711,10.711,0,1,0-1,21.4Z" transform="translate(-156.101 -217.629)" fill="#57b894"/><path d="M181.586,683.253a10.73,10.73,0,1,0-4.738-20.076l1.9,5.2-3.9-3.745a10.7,10.7,0,0,0-3.47,7.405,10.463,10.463,0,0,0,.275,2.95A10.7,10.7,0,0,0,181.586,683.253Z" transform="translate(-148.052 -212.281)" fill="#57b894"/><path d="M188.365,646.314c2.476.267,4.883,1.039,7.367,1.192s5.212-.443,6.786-2.369a34.026,34.026,0,0,0,1.987-3.492,7.642,7.642,0,0,1,2.7-2.545,10.7,10.7,0,1,1-20.053,7.123Q187.8,646.245,188.365,646.314Z" transform="translate(-151.774 -206.928)" opacity="0.1"/><path d="M181.682,685.15a10.729,10.729,0,0,0,10.2-15.3,8.033,8.033,0,0,0-2.155,2.155,34.529,34.529,0,0,1-2.125,3.546c-1.666,1.964-4.524,2.606-7.115,2.484s-5.082-.848-7.642-1.085c-.352,0-.718-.053-1.078-.069a10.7,10.7,0,0,0,9.912,8.269Z" transform="translate(-148.148 -214.178)" opacity="0.1"/><path d="M215.8,707.881a10.7,10.7,0,0,0,11.219-10.218,10.562,10.562,0,0,0-.925-4.883,8.8,8.8,0,0,0-2.293,2.178c-.833,1.177-1.353,2.53-2.293,3.615-1.811,2.018-4.853,2.728-7.6,2.66s-5.212-.711-7.856-.909a10.7,10.7,0,0,0,9.744,7.558Z" transform="translate(-156.233 -219.585)" opacity="0.1"/><path d="M211.89,737.09a10.709,10.709,0,0,0,19.549-8.75,10.89,10.89,0,0,0-2.354,2.094,42.294,42.294,0,0,1-2.873,3.821c-2.193,2.155-5.732,3.057-8.88,3.126A47.4,47.4,0,0,1,211.89,737.09Z" transform="translate(-157.608 -227.969)" opacity="0.1"/><path d="M237.21,759.068s-8.46-.26-11.012-2.079-12.992-3.989-13.657-1.07-12.724,14.52-3.164,14.566,22.208-1.49,24.753-3.057S237.21,759.068,237.21,759.068Z" transform="translate(-156.15 -234.135)" fill="#656380"/><path d="M209.219,770.869c9.553.076,22.208-1.528,24.753-3.057,1.933-1.185,2.713-5.426,2.965-7.382h.283s-.535,6.824-3.057,8.406-15.193,3.118-24.753,3.057c-2.759,0-3.714-1-3.661-2.461C206.109,770.3,207.163,770.854,209.219,770.869Z" transform="translate(-156.159 -235.535)" opacity="0.2"/></svg>