<svg id="undraw_circles_y7s2" xmlns="http://www.w3.org/2000/svg" xmlns:xlink="http://www.w3.org/1999/xlink" width="897.23" height="608.494" viewBox="0 0 897.23 608.494">
  <defs>
    <linearGradient id="linear-gradient" x1="1.168" y1="1" x2="1.168" gradientUnits="objectBoundingBox">
      <stop offset="0" stop-color="gray" stop-opacity="0.251"/>
      <stop offset="0.54" stop-color="gray" stop-opacity="0.122"/>
      <stop offset="1" stop-color="gray" stop-opacity="0.102"/>
    </linearGradient>
    <linearGradient id="linear-gradient-2" x1="-0.934" y1="0.5" x2="0.066" y2="0.5" xlink:href="#linear-gradient"/>
  </defs>
  <path id="Path_216" data-name="Path 216" d="M430.5,488.267a25.084,25.084,0,0,0,1.09,2.391v.1s5.186,19.159,7.614,23.181c.706,1.164,1.5,2.428,2.291,3.665a8.146,8.146,0,0,0,0,2.749c.733,4.27,1.622,10.143,1.219,11.435s.486,4.508-.916,5.626-2.84,3.06,1.457,5.635c0,0,.806,2.172.082,2.657-.082.055,0,.174.2.33-1.182,3.5-2.914,9.162-1.832,9.566.6.229,2.208-.614,3.977-1.75.046.229.082.477.128.724a34.952,34.952,0,0,0,1.3,5.562c.788,1.75,1.576,4.7,1.155,5.672s1.154,3.134.788,3.986,1.219,3.619,1.219,3.619,1.576,5.369,1.512,7.183,1.7,13.515,1.7,13.515-1.832,6.038-.916,7.788,1.512,7.788,0,10.024-3.408,7.174-2.795,8.5-.852,17.748,2.85,24.51a75.366,75.366,0,0,1,1.035,7.6c0,1.832,2.914,6.7,2.914,6.7s-1.759,7.33,2.556,8.567a4.061,4.061,0,0,0,.916.174,4.114,4.114,0,0,1-.311,2.364,9.347,9.347,0,0,0-1.539,3.408h0a.916.916,0,0,0,.082.687c.486.541,1.832,7.788,1.832,7.788s1.942,8.145,12.635,6.157c0,0,7.229-.422,6.624-2.959a16.647,16.647,0,0,0-.788-2.456,15.875,15.875,0,0,1-.678-1.585c-.119-.6-1.64-2.3-1.759-3.445s-1.09-3.381-.916-4.1-1.64-5.91-1.768-7.064a11.979,11.979,0,0,0-.687-2.346l.385-.183s.971-5.433.128-7.422-4.2-4.581-4.2-4.581.486-13.341-.119-15.155.3-8.686.3-8.686,2.062-9.721,1.942-11.911a10.079,10.079,0,0,1,.6-3.986s1.283-14.3,2.126-16.117,1.832-19.553,1.832-19.553l.568,1.631a62.641,62.641,0,0,0,2.84,7.174c.467.733,1.833,3.079,3.005,5.039l1.732,2.932s.788,2.84.238,4.581,5.653,11.16,5.653,11.16a5.581,5.581,0,0,0-.6,2.538c.174.916-1.887,3.8-1.887,3.8s-.788,2.593-.3,3.5-.788,6.276-.788,6.276-2.071,11.829-2.556,13.221.247,10.922.247,10.922-3.812,9.758-2.043,13c.073,1.2.082,3.033-.385,3.775-.632.99-.449,4.645-.385,5.653v.266s-2.071,2.749.541,3.867,11.49,1.924,11.49,1.924,8.439,2.419,12.507,3.079,12.58.422,13.185-2.052a6.606,6.606,0,0,0,.22-2.364,2.941,2.941,0,0,0-1.677-2.346,68.922,68.922,0,0,0-7.66-2.538s-4.013-.916-4.38-2.657-6.075-6.579-6.075-6.579-.064-.339-.183-.8h.183l-.275-.275c-.284-.916-.742-2.126-1.3-1.9h0a1.374,1.374,0,0,1,.623-1.888c2.19-1.2,3.528-5,2.914-9.107s-.724-3.381.55-5.736a11.27,11.27,0,0,0,.916-5.672l3.363-12.534a18.968,18.968,0,0,0,.971-4.764A8.907,8.907,0,0,1,508,616.3s1.521-8.7,2.859-10.683-.916-9-.916-9-2.062-10.857-1.942-15.814-5.351-22.146-5.351-22.146a5.754,5.754,0,0,1-.843-3.747,9.58,9.58,0,0,0-1.255-4.187l-.229-.467a4.059,4.059,0,0,1,1-.916c1.5-.916,2.208-3.326,2.217-5.021L482.818,495.5c0-.147,9.593-19.745,9.566-19.892-.568-3.216-5.992-11.746-5.992-11.746h0a.687.687,0,0,0-.229-.266c-1.219-.559-5.342-2.9-5.342-2.9-3.234-3.995-6.267-4.819-8.246-4.792a5.607,5.607,0,0,0-1.833.284,4.043,4.043,0,0,0-.614.247l-.092.8a16.345,16.345,0,0,1,.431-5.5c.046-.156.092-.321.128-.476h.916a14.77,14.77,0,0,0,14.816-14.724,14.953,14.953,0,0,0-.568-4.077l-.073-.211.458-.2c1.832-.678,4.132.476,5.617-.751a4.261,4.261,0,0,0,1.118-1.933,11.608,11.608,0,0,0,.816-3.069q0-.275,0-.55a1,1,0,0,0,0-.165,1.554,1.554,0,0,0,0-.2v-.247h0a3.565,3.565,0,0,0-.788-1.833c-.971-1.136-2.593-1.411-3.821-2.245a9.245,9.245,0,0,1-2.446-2.868,10.666,10.666,0,0,0-2.373-2.923,3.491,3.491,0,0,0-3.564-.559,4.023,4.023,0,0,1-1.173.55,2.446,2.446,0,0,1-1.292-.348c-4.215-1.97-9.162-1.622-13.744-1.035a17.875,17.875,0,0,0-5.415,1.3,6.414,6.414,0,0,0-3.665,3.967c-.376,1.42-.092,2.96-.541,4.361-.312.916-.916,1.759-1.3,2.685a5.5,5.5,0,0,0-.348,1.512h0v.147c-.156,2.08.66,4.27,1.054,6.414.541,2.923.266,6.1,1.521,8.869a5.309,5.309,0,0,0,.476.971c-.44.916-.916,1.887-1.374,2.795-.678-.192-2.749-.651-2.822,1.164a9.878,9.878,0,0,1-1.008,4.251,3.009,3.009,0,0,1-.3.211.586.586,0,0,0-.339.6h0l-.238.183a.586.586,0,0,0-.293.1c-.128-.22-.55-.238-1.887,1.356a25.747,25.747,0,0,1-6.075,4.673s-9,6.276-9.483,9.162S428.961,484.08,430.5,488.267Zm39.509-30.621v-.1l.11.055Zm24.445,205.239a1.961,1.961,0,0,1-.77.156Z" transform="translate(-100.115 -142.943)" fill="url(#linear-gradient)"/>
  <path id="Path_217" data-name="Path 217" d="M476.41,711.258c-10.564,1.979-12.488-6.121-12.488-6.121s-1.319-7.2-1.832-7.742a.916.916,0,0,1-.082-.687h0a9.382,9.382,0,0,1,1.521-3.39c.66-.779.119-4.022.119-4.022l12.241-3.115a18.373,18.373,0,0,1,1.2,3.6c.128,1.136,1.924,6.3,1.741,7.018s.788,2.941.916,4.086,1.622,2.822,1.741,3.418a12.836,12.836,0,0,0,.66,1.585,15.425,15.425,0,0,1,.779,2.437C483.548,710.836,476.41,711.258,476.41,711.258Z" transform="translate(-102.788 -165.789)" fill="#444053"/>
  <path id="Path_218" data-name="Path 218" d="M476.41,712.22c-10.564,1.979-12.488-6.121-12.488-6.121s-1.319-7.2-1.832-7.742a.916.916,0,0,1-.082-.687l2.538,7.33s2.107,4.389,9.9,3.72c4.444-.367,6.624-1.191,7.687-1.832a15.416,15.416,0,0,1,.779,2.437C483.548,711.8,476.41,712.22,476.41,712.22Z" transform="translate(-102.788 -166.751)" opacity="0.1"/>
  <path id="Path_219" data-name="Path 219" d="M468.75,700.908s2.648.064,2.822-2.1Z" transform="translate(-103.355 -166.847)" opacity="0.1"/>
  <path id="Path_220" data-name="Path 220" d="M512.925,617.081C511.606,619.06,510.1,627.7,510.1,627.7a9.088,9.088,0,0,0-.916,3.665,18.565,18.565,0,0,1-.916,4.746L504.8,648.536a11.242,11.242,0,0,1-.916,5.635c-1.255,2.346-1.136,1.622-.541,5.708s-.715,7.861-2.877,9.062.962,4.022.962,4.022-13.808,3.72-16.694,1.438,1.5-13.56,1.5-13.56-.715-9.483-.238-10.867,2.52-13.148,2.52-13.148,1.264-5.342.779-6.24.3-3.482.3-3.482,2.043-2.886,1.832-3.784a5.643,5.643,0,0,1,.6-2.52s-6.12-9.364-5.589-11.1a10.547,10.547,0,0,0-.238-4.581s-.77-1.328-1.7-2.914c-1.136-1.952-2.51-4.279-2.978-5.012a63.984,63.984,0,0,1-2.795-7.129l-.568-1.631s-.916,17.647-1.832,19.443-2.1,16.034-2.1,16.034a9.968,9.968,0,0,0-.6,3.958c.119,2.217-1.924,11.911-1.924,11.911s-.916,6.844-.293,8.649.119,15.063.119,15.063,3.3,2.584,4.141,4.581-.119,7.385-.119,7.385-9.6,4.8-13.872,3.537-2.52-8.521-2.52-8.521-2.877-4.8-2.877-6.661a75.321,75.321,0,0,0-1.026-7.568c-3.665-6.725-2.217-23.044-2.813-24.372s1.255-6.24,2.749-8.457.916-8.246,0-9.969.916-7.742.916-7.742-1.741-11.646-1.677-13.441-1.5-7.147-1.5-7.147-1.558-2.749-1.2-3.6-1.2-3.005-.779-3.958-.366-3.9-1.145-5.644a36.182,36.182,0,0,1-1.283-5.5c-.367-2.071-.632-3.894-.632-3.894l9.9-7.981,24.739-6.487L491.916,545l9.062,14.284s.916,1.494,1.768,3.216a9.544,9.544,0,0,1,1.237,4.169,5.745,5.745,0,0,0,.843,3.72s5.4,17.106,5.278,21.99,1.924,15.732,1.924,15.732S514.245,615.1,512.925,617.081Z" transform="translate(-101.608 -153.964)" fill="#3f3d56"/>
  <path id="Path_221" data-name="Path 221" d="M458.21,633.206s10.564-4.5,13.68-1.319S458.21,633.206,458.21,633.206Z" transform="translate(-102.472 -161.146)" opacity="0.1"/>
  <path id="Path_222" data-name="Path 222" d="M463.976,635.39s-10.711,6.056-7.046,7.028S463.976,635.39,463.976,635.39Z" transform="translate(-102.301 -161.535)" opacity="0.1"/>
  <path id="Path_223" data-name="Path 223" d="M499.245,629.7s-4.581.293-2.822,1.2S499.245,629.7,499.245,629.7Z" transform="translate(-105.639 -161.058)" opacity="0.1"/>
  <path id="Path_224" data-name="Path 224" d="M504.763,631.2c-.064.3-13.267,4.581-10.683,6.487S504.763,631.2,504.763,631.2Z" transform="translate(-105.448 -161.184)" opacity="0.1"/>
  <path id="Path_225" data-name="Path 225" d="M459.91,671.011c1.979-.293,13.029-5.4,8.7-1.732a8.613,8.613,0,0,1-8.7,1.732Z" transform="translate(-102.615 -164.263)" opacity="0.1"/>
  <path id="Path_226" data-name="Path 226" d="M465.87,675.68s.962,3.729,4.627,3.243S465.87,675.68,465.87,675.68Z" transform="translate(-103.114 -164.909)" opacity="0.1"/>
  <path id="Path_227" data-name="Path 227" d="M462.53,683.707c.66-.183,8.521-3.784,8.7-2.1s-7.5,4.581-8.1,3.72a3.226,3.226,0,0,1-.6-1.622Z" transform="translate(-102.834 -165.368)" opacity="0.1"/>
  <path id="Path_228" data-name="Path 228" d="M490.31,679.089c.916-.055,9.96-2.941,11.765-.357Z" transform="translate(-105.161 -165.075)" opacity="0.1"/>
  <path id="Path_229" data-name="Path 229" d="M499.22,680.981s1.558-1.384,3.115-.66S499.22,680.981,499.22,680.981Z" transform="translate(-105.907 -165.281)" opacity="0.1"/>
  <path id="Path_230" data-name="Path 230" d="M477.47,697.3a2.675,2.675,0,0,0,2.034,2.107Z" transform="translate(-104.085 -166.72)" opacity="0.1"/>
  <path id="Path_231" data-name="Path 231" d="M523.973,701.685c-.6,2.465-9.007,2.7-13.02,2.043s-12.369-3.06-12.369-3.06-8.759-.843-11.343-1.924-.541-3.839-.541-3.839v-.257c-.064-1.008-.238-4.645.376-5.626.724-1.145.3-4.865.3-4.865s12.424,2.4,12.663,1.264,2.162-2.749,3.06-3.124,1.567,3.005,1.567,3.005,5.644,4.8,6,6.542,4.316,2.639,4.316,2.639a67.11,67.11,0,0,1,7.568,2.52,2.914,2.914,0,0,1,1.658,2.327,6.542,6.542,0,0,1-.238,2.355Z" transform="translate(-104.794 -165.461)" fill="#444053"/>
  <path id="Path_232" data-name="Path 232" d="M523.973,702.817c-.6,2.465-9.007,2.7-13.02,2.043s-12.369-3.06-12.369-3.06-8.759-.843-11.343-1.924-.541-3.839-.541-3.839v-.257l12.562,2.749s6.185,2.639,10.143,2.639c3.463,0,11.206,1.42,14.807-.733A6.543,6.543,0,0,1,523.973,702.817Z" transform="translate(-104.794 -166.593)" opacity="0.1"/>
  <path id="Path_233" data-name="Path 233" d="M508.636,693.11s-.6,3.958-3,5.287Z" transform="translate(-106.445 -166.369)" opacity="0.1"/>
  <path id="Path_234" data-name="Path 234" d="M549.1,533.032c-3.573,1.356-11.82,1.5-15.485,1.5h-1.832l-2.355-4.8,2.355-4s2.162-.6,5.039-1.118c4.242-.76,10.079-1.356,12.827.357C554.269,527.837,553.775,531.318,549.1,533.032Z" transform="translate(-108.437 -152.194)" fill="#a1616a"/>
  <path id="Path_235" data-name="Path 235" d="M490.982,471.05l1.045-1.2s5.36,8.484,5.919,11.682,1.283,6.881,1.283,6.881,1.356,4.16,2.245,6a20.3,20.3,0,0,1,1.759,4.407c.073.8-.321,2.556,1.356,3.665s2.08,4.16,2.08,4.16,6.084,5.919,9.291,6.084,12.4,1.759,12.085,3.353,3.839,2.565,5.5,2.969-10.793,5.213-3.463,11.407c0,0-4.645.916-5.122,2.08s-5.36-.641-5.36-.641-1.045-2.483-4.645-2.639-5.443-1.759-5.443-2a20.484,20.484,0,0,0-5.6-2.8c-2-.559-4.645-.8-4.728-1.365s-12-52.015-12-52.015Z" transform="translate(-104.899 -147.67)" fill="#ff63b9"/>
  <path id="Path_236" data-name="Path 236" d="M490.982,471.27l1.045-1.2s5.36,8.484,5.919,11.691,1.283,6.881,1.283,6.881,1.356,4.16,2.245,6a20.453,20.453,0,0,1,1.759,4.4c.073.806-.321,2.565,1.356,3.665s2.08,4.16,2.08,4.16,6.084,5.928,9.291,6.084,12.4,1.759,12.085,3.363,3.839,2.565,5.5,2.959-10.793,5.223-3.463,11.389c0,0-4.645.916-5.122,2.08s-5.36-.641-5.36-.641-1.045-2.483-4.645-2.639-5.443-1.759-5.443-2.007-3.6-2.236-5.6-2.795-4.645-.806-4.728-1.365-12-52.024-12-52.024Z" transform="translate(-104.899 -147.689)" opacity="0.05"/>
  <path id="Path_237" data-name="Path 237" d="M614.991,708.78c60.472,0,109.491,9.85,109.491,21.99s-49.019,21.99-109.491,21.99S505.5,742.919,505.5,730.77" transform="translate(-106.433 -167.682)" fill="none" stroke="#444053" stroke-miterlimit="10" stroke-width="1"/>
  <rect id="Rectangle_25" data-name="Rectangle 25" width="15.659" height="116.427" transform="matrix(0.986, 0.167, -0.167, 0.986, 470.62, 85.304)" fill="#444053"/>
  <path id="Path_238" data-name="Path 238" d="M550.34,598.661l3.427,24.464L556.7,597.69Z" transform="translate(-46.051 -50.059)" fill="#d0d2d5"/>
  <path id="Path_239" data-name="Path 239" d="M430.2,583.532v15.173l3.427,13.2h2.446l2.941-14.184L440.48,580.6Z" transform="translate(-35.989 -48.628)" fill="#3f3d56"/>
  <path id="Path_240" data-name="Path 240" d="M492.12,637.42l7.33,1.466s-8.31,22.989-2.446,27.881h-9.282S484.295,649.157,492.12,637.42Z" transform="translate(-104.881 -161.705)" fill="#d0d2d5"/>
  <path id="Path_241" data-name="Path 241" d="M492.12,637.42l7.33,1.466s-8.31,22.989-2.446,27.881h-9.282S484.295,649.157,492.12,637.42Z" transform="translate(-104.881 -161.705)" opacity="0.1"/>
  <path id="Path_242" data-name="Path 242" d="M541.732,335.75,518.249,484.466s-34.726,158.511-21.523,189.819h16.639L563.264,370Z" transform="translate(-105.447 -136.439)" fill="#d0d2d5"/>
  <path id="Path_243" data-name="Path 243" d="M609.039,315.59l18,149.476S640.154,655.49,625.8,686.285H611.613L586.27,349.024Z" transform="translate(-113.198 -134.751)" fill="#d0d2d5"/>
  <path id="Path_244" data-name="Path 244" d="M543.355,275.193a19.241,19.241,0,0,1,18.975-13.744c14.486.366,36.879,3.005,48.561,14.971C629,295.011,598.66,357.628,598.66,357.628s-28.4,52.345-54.3-14.184C544.326,343.5,533.588,307.876,543.355,275.193Z" transform="translate(-109.26 -130.215)" fill="#444053"/>
  <path id="Path_245" data-name="Path 245" d="M543.355,275.193a19.241,19.241,0,0,1,18.975-13.744c14.486.366,36.879,3.005,48.561,14.971C629,295.011,598.66,357.628,598.66,357.628s-28.4,52.345-54.3-14.184C544.326,343.5,533.588,307.876,543.355,275.193Z" transform="translate(-109.26 -130.215)" opacity="0.1"/>
  <path id="Path_246" data-name="Path 246" d="M554.333,289.437a13.744,13.744,0,0,1,13.515-9.767c10.308.266,26.25,2.144,34.542,10.665,12.892,13.231-8.7,57.815-8.7,57.815s-20.157,37.264-38.666-10.079C555.02,338.044,547.369,312.709,554.333,289.437Z" transform="translate(-110.278 -131.742)" fill="#444053"/>
  <path id="Path_247" data-name="Path 247" d="M609.321,694.063c.156,2.364.522,4.847,2.016,6.7,2.474,3.06,6.973,3.3,10.821,4.261a47.644,47.644,0,0,1,8.558,3.372l8.329,3.94a21.7,21.7,0,0,0-6.249,1.3c-1.072.394-2.245,1.045-2.4,2.162a2.309,2.309,0,0,0,1.384,2.217,6.522,6.522,0,0,0,2.749.486,92.388,92.388,0,0,0,14.843-.779l.586-.082q3.793,1.878,7.55,3.839a2.945,2.945,0,0,0,3.179-.77,16.856,16.856,0,0,0,2.822-3.225c.147.257.293.5.412.751.806,1.548,1.567,3.573.412,4.893-.916,1.026-2.648,1.2-3.17,2.446a2.208,2.208,0,0,0,.852,2.483,5.645,5.645,0,0,0,2.666.916,23.667,23.667,0,0,0,6.826-.055,5.5,5.5,0,0,0,3.3-1.4,6.047,6.047,0,0,0,1.173-3.665l1.567-17.8a5.342,5.342,0,0,0-.183-2.529c-.623-1.512-2.428-2.144-4.059-2.41h-.174c1.356,0,2.749-.064,4.215-.064a10.076,10.076,0,0,0,3.775-.477c2.327-.916,3.582-3.363,4.581-5.617,1.833-3.958,3.94-8.246,3.665-12.644l-.715-.321c-.064-4.682-2.025-9.052-2.749-13.625a7.586,7.586,0,0,0,1.219-4.123,15.249,15.249,0,0,0-1.035-4.691c-2.9-8.631-5.809-17.29-9.694-25.536a88.335,88.335,0,0,0-9.162-15.576q-1.4-1.832-2.914-3.665c-.733-.843-2.373-2.034-2.675-3.106s.339-2.117,0-3.216a5.453,5.453,0,0,0-.33-.834c2.144-2.84,1.539-6.945.788-10.482l-.916-4.407a11.914,11.914,0,0,0-1.136-3.491,10.2,10.2,0,0,0-2.19-2.483c-4.508-4.068-10.079-6.771-15.146-10.143a136.82,136.82,0,0,1-14.953-12.177c-1.466-1.3-3.308-2.7-5.2-2.153s-2.685,2.6-2.749,4.471a9.218,9.218,0,0,0,2.978,6.909c3.317,3.033,8.329,3.28,12.278,5.424a28.73,28.73,0,0,1,3.857,2.685l11.471,9.007a3.986,3.986,0,0,1,1.787,2.327,3.747,3.747,0,0,1-.275,1.723c-.431,1.319-1.164,2.978-1.7,4.655l-.916-.66a35.911,35.911,0,0,0-6.075-3.665,30.153,30.153,0,0,0-8.9-2.135c-6.771-.76-12.827.284-16.969,5.937a12.552,12.552,0,0,1-3.216,3.308,11.916,11.916,0,0,0-2.611,1.658c-2.126,2.355-.916,6.258,1.081,8.246a12.827,12.827,0,0,0,6.029,3.143,12.388,12.388,0,0,0,15.045,6.743,18.415,18.415,0,0,1,.082,3.555,4.1,4.1,0,0,0,1.292,3.289,5.39,5.39,0,0,0,1.576.733,24.179,24.179,0,0,1,5.708,2.978,29.32,29.32,0,0,0-5.058,7.559,12.3,12.3,0,0,0,.916,11.435l.055.073a3.793,3.793,0,0,1-.834,1.539,2.749,2.749,0,0,1-3.784-.385,14.4,14.4,0,0,1-1.979-3.051,12.772,12.772,0,0,0-8.246-5.827,6.625,6.625,0,0,0-3.8.156,3.353,3.353,0,0,0-2.208,2.859c0,1.384,1.008,2.529,2,3.509a58.264,58.264,0,0,0,10.079,8.338,32.462,32.462,0,0,0,3.088,1.686q-2.749-.577-5.424-1.127a24.528,24.528,0,0,0-7.651-.669,8.539,8.539,0,0,0-6.414,3.738,8.246,8.246,0,0,0-.6,6.23,20.944,20.944,0,0,0,2.813,5.772,41.091,41.091,0,0,0,7.028,8.8c-2.291.687-4.581,1.439-6.817,2.263s-4.581,1.832-5.607,3.885A8.906,8.906,0,0,0,609.321,694.063Zm33.727-31.152h.082a2.868,2.868,0,0,0,1.2-1.017,16.621,16.621,0,0,0,2.9-6.267,7.069,7.069,0,0,0,1.558-.394,3.482,3.482,0,0,0-1.081,2.529l5.168,2.529a1.924,1.924,0,0,1,.916.724,1.833,1.833,0,0,1,.1,1.081c-.147,1.182-.376,2.364-.522,3.537-1.548-.458-3.069-.825-4.435-1.191-1.942-.531-3.912-1.026-5.882-1.521Z" transform="translate(-115.12 -155.401)" fill="url(#linear-gradient-2)"/>
  <path id="Path_248" data-name="Path 248" d="M646.059,618.563a9.9,9.9,0,0,0,7.7-1.237,4.719,4.719,0,0,1,1.493-.7,3.042,3.042,0,0,1,2.547,1.017c2.2,2.19,2.456,5.8,1.319,8.686s-3.418,5.158-5.809,7.128A52.718,52.718,0,0,1,647.2,637.8a11.325,11.325,0,0,0-6.267-6.093c-2.511-.971-4.343-3.573-5.782-5.846-1.072-1.686-2.025-1.613-1.063-3.353a25.364,25.364,0,0,1,3.812-4.581,14.888,14.888,0,0,0,2.052-2.749c.641-1.154.495-1.906,1.484-.99.651.6.916,1.915,1.668,2.62A7.331,7.331,0,0,0,646.059,618.563Z" transform="translate(-117.169 -159.725)" fill="#fabdbd"/>
  <path id="Path_249" data-name="Path 249" d="M652.914,596.553a3.876,3.876,0,0,0,.266-1.7,3.977,3.977,0,0,0-1.75-2.3l-11.206-8.888a27.5,27.5,0,0,0-3.757-2.648c-3.867-2.117-8.75-2.364-11.994-5.351a9.208,9.208,0,0,1-2.914-6.826c0-1.833.916-3.9,2.648-4.416s3.665.843,5.094,2.135a134.347,134.347,0,0,0,14.587,12.012c4.948,3.335,10.4,5.992,14.807,10.015a9.969,9.969,0,0,1,2.043,2.391,12.281,12.281,0,0,1,1.109,3.454l.916,4.343c.77,3.665,1.393,7.926-1.072,10.738a3.912,3.912,0,0,1-2.987,1.475,5.881,5.881,0,0,1-2.3-.788c-1.833-.916-5.149-1.833-5.708-4.123C649.982,603.215,652.043,599.211,652.914,596.553Z" transform="translate(-116.153 -155.583)" fill="#fabdbd"/>
  <path id="Path_250" data-name="Path 250" d="M634.826,661.181a14.661,14.661,0,0,1-1.933-3.005,12.47,12.47,0,0,0-8.045-5.754,6.468,6.468,0,0,0-3.665.147,3.307,3.307,0,0,0-2.153,2.831c0,1.356.98,2.492,1.942,3.454a56.8,56.8,0,0,0,9.859,8.246,26,26,0,0,0,11.994,4.16,3.023,3.023,0,0,0,1.283-.119,2.868,2.868,0,0,0,1.173-1c2.272-2.914,3.06-6.7,3.665-10.335-.22,1.31-7.6-1.75-8.43-1.356-1.228.577-1.109,2.3-2,3.124a2.648,2.648,0,0,1-3.693-.394Z" transform="translate(-115.941 -162.945)" fill="#fabdbd"/>
  <path id="Path_251" data-name="Path 251" d="M692.2,691.759a2.428,2.428,0,0,1-.257,1.329c-.5.788-1.64.8-2.565.66a46.894,46.894,0,0,1-6.313-1.521l-18.811-5.433a1.714,1.714,0,0,1-.806-.394,1.667,1.667,0,0,1-.376-.825,22.128,22.128,0,0,1-.412-8.246,1.662,1.662,0,0,1,1.933-1.7,79.7,79.7,0,0,1,8.869-.4,44.759,44.759,0,0,0,5.763-.128c2.474-.293,5.323-1.713,7.806-1.494,2.153.183,2.062,1.833,2.281,3.665C689.928,682.138,692.155,686.793,692.2,691.759Z" transform="translate(-119.578 -164.734)" fill="#fabdbd"/>
  <path id="Path_252" data-name="Path 252" d="M628.029,668.983a23.464,23.464,0,0,0-7.477-.669,8.319,8.319,0,0,0-6.258,3.665,8.146,8.146,0,0,0-.586,6.157,21.3,21.3,0,0,0,2.749,5.69,37.41,37.41,0,0,0,8.035,9.676c1.6,1.273,3.372,2.327,4.911,3.665,3.28,2.868,5.314,6.872,7.266,10.766,1.833,3.665,3.665,7.4,4.453,11.435a1.145,1.145,0,0,0,.394.816,1.09,1.09,0,0,0,.815.055l9.025-1.668a1.411,1.411,0,0,0,1.264-2.144,63.149,63.149,0,0,0-10.766-23.282,20.661,20.661,0,0,0,18.16,5.259,7.091,7.091,0,0,0,3.445-1.494c2.016-1.832,1.924-4.957,1.475-7.623a55.969,55.969,0,0,0-1.668-7.028c-1.7-5.5-9.007-6.982-13.964-8.319Q638.749,671.146,628.029,668.983Z" transform="translate(-115.466 -164.287)" fill="#3f3d56"/>
  <path id="Path_253" data-name="Path 253" d="M635.44,689.825a9.924,9.924,0,0,1,3.427,2.272c-1.622-1.833-6.258-2.749-8.53-3.6-2.813-1.045-5.882-2.117-8.246-3.977a98.843,98.843,0,0,1,13.35,5.305Z" transform="translate(-116.198 -165.65)" opacity="0.1"/>
  <path id="Path_254" data-name="Path 254" d="M668.3,730.885c.779,1.539,1.521,3.528.4,4.838-.861,1.008-2.584,1.182-3.1,2.41a2.19,2.19,0,0,0,.834,2.456,5.388,5.388,0,0,0,2.6.916,23.248,23.248,0,0,0,6.67-.055,5.35,5.35,0,0,0,3.216-1.383,6.029,6.029,0,0,0,1.145-3.665l1.53-17.574a5.5,5.5,0,0,0-.174-2.5c-.614-1.493-2.373-2.107-3.967-2.373a21.291,21.291,0,0,0-5.4-.22,5.7,5.7,0,0,0-3.363,1.154,6.5,6.5,0,0,0-1.585,3.665c-.412,2.089-1.567,4.984-1.319,7.1C665.959,727.4,667.535,729.346,668.3,730.885Z" transform="translate(-119.834 -168.09)" fill="#ff63b9"/>
  <path id="Path_255" data-name="Path 255" d="M645.335,725.863a21.393,21.393,0,0,0-10.18,1.145c-1.045.385-2.19,1.035-2.346,2.135a2.281,2.281,0,0,0,1.356,2.19,6.414,6.414,0,0,0,2.694.486,91.3,91.3,0,0,0,14.5-.77,7.8,7.8,0,0,0,3.527-1.109,2.749,2.749,0,0,0,1.109-3.262c-.577-1.209-2.153-1.585-2.914-2.675-.55-.788-.687-1.952-1.548-2.364a2.648,2.648,0,0,0-1.97.147c-.916.321-3.115.641-3.748,1.4A10.535,10.535,0,0,0,645.335,725.863Z" transform="translate(-117.095 -168.748)" fill="#ff63b9"/>
  <circle id="Ellipse_5" data-name="Ellipse 5" cx="12.03" cy="12.03" r="12.03" transform="translate(503.235 444.389)" fill="#fabdbd"/>
  <path id="Path_256" data-name="Path 256" d="M661.416,610.351c-1.933-1.42-4.37-1.906-6.725-2.346a3.518,3.518,0,0,0-2.419.119,3.573,3.573,0,0,0-1.164,1.429,13.3,13.3,0,0,0-1.594,3.8,4.416,4.416,0,0,0,.916,3.876c.715.733,1.741,1.1,2.474,1.832a4.581,4.581,0,0,1,1.081,3.958,11.848,11.848,0,0,1-1.6,3.912,66.267,66.267,0,0,1-6.029,8.869c-2.336,2.9-4.957,5.7-6.331,9.162a12.259,12.259,0,0,0,.916,11.288c2.227,3.244,6.661,4.984,10.335,3.583a3.408,3.408,0,0,0-1.045,2.492l5.039,2.5a1.906,1.906,0,0,1,.916.715,1.833,1.833,0,0,1,.092,1.063,33.419,33.419,0,0,0-.614,6.166c.137,2.062,1.081,4.233,2.95,5.131,1.713.825,3.747.385,5.617,0a70.121,70.121,0,0,1,13.258-1.393c2.217,0,4.508.055,6.551-.806a7.788,7.788,0,0,0,4.645-7.046,15.028,15.028,0,0,0-1.017-4.636,234.172,234.172,0,0,0-9.465-25.206,88.559,88.559,0,0,0-8.988-15.393c-.916-1.219-1.832-2.419-2.849-3.583-.715-.834-2.318-2.007-2.611-3.069s.33-2.089,0-3.17a6.413,6.413,0,0,0-2.336-3.253Z" transform="translate(-117.619 -159.228)" fill="#ff63b9"/>
  <path id="Path_257" data-name="Path 257" d="M688.526,692.917c-5.278-2.437-10.555-4.874-16.043-6.771-4.041-1.393-8.549-2.483-12.516-.916-1.191.476-2.272,1.164-3.418,1.723-3.839,1.833-8.246,2.144-12.488,2.611a117.278,117.278,0,0,0-27.625,6.57c-2.135.788-4.435,1.833-5.5,3.83a8.768,8.768,0,0,0-.586,4.581c.156,2.336.513,4.792,1.97,6.615,2.419,3.024,6.808,3.253,10.564,4.206a46.305,46.305,0,0,1,8.365,3.335c8.778,4.187,17.564,8.375,26.177,12.91a2.851,2.851,0,0,0,3.1-.76,19.048,19.048,0,0,0,5.406-8.906,38.43,38.43,0,0,0,1.374-10.427c3.372,0,6.111-.147,9.483-.147a9.805,9.805,0,0,0,3.665-.467c2.263-.916,3.491-3.326,4.508-5.543C686.776,701.447,688.82,697.205,688.526,692.917Z" transform="translate(-115.208 -165.645)" fill="#3f3d56"/>
  <path id="Path_258" data-name="Path 258" d="M628.8,707.253c2.373-1.154,5.122-1.182,7.77-1.164a25.706,25.706,0,0,1,4.819.367,38.053,38.053,0,0,1,7.046,2.648,44.73,44.73,0,0,0,17.757,3.482" transform="translate(-116.76 -167.456)" opacity="0.1"/>
  <path id="Path_259" data-name="Path 259" d="M613.664,616.47a13.121,13.121,0,0,0,6.487,3.253c2.382.55,4.838.76,7.238,1.292,2.95.651,6.176,2.208,6.844,5.159a17.136,17.136,0,0,1,.092,3.564,4.04,4.04,0,0,0,1.237,3.216,5.5,5.5,0,0,0,1.539.724,25.655,25.655,0,0,1,16.492,23.676A11.664,11.664,0,0,0,659.257,649c0,3.188,2.749,6.414,1.191,9.263a14.66,14.66,0,0,0,3.528-21.3c-1.209-1.539-2.749-2.822-4.013-4.3a19.919,19.919,0,0,1-4.746-15.21c.266-2.318.916-4.664.431-6.945-.706-3.161-3.482-5.36-6.12-7.238a35.182,35.182,0,0,0-5.937-3.61,29.193,29.193,0,0,0-8.7-2.117c-6.606-.742-12.479.284-16.575,5.864a12.067,12.067,0,0,1-3.134,3.262,11.814,11.814,0,0,0-2.556,1.64C610.531,610.634,611.722,614.482,613.664,616.47Z" transform="translate(-115.313 -158.347)" fill="#3f3d56"/>
  <path id="Path_260" data-name="Path 260" d="M476.875,469.087c-.376-.156-26.489-10.94-22.906-13.084,2.135-1.274,4.764-6.661,6.56-10.885,1.255-2.941,2.107-5.323,2.107-5.323s20.964-3.72,13.46,9.162a23.9,23.9,0,0,0-2.648,6.331C471.286,463.992,476.665,468.922,476.875,469.087Z" transform="translate(-102.089 -145.111)" fill="#a1616a"/>
  <path id="Path_261" data-name="Path 261" d="M476.7,448.92a23.9,23.9,0,0,0-2.648,6.331,14.66,14.66,0,0,1-12.369-8.7,12.833,12.833,0,0,1-.55-1.429c1.255-2.941,2.107-5.323,2.107-5.323S484.2,436.074,476.7,448.92Z" transform="translate(-102.717 -145.111)" opacity="0.1"/>
  <path id="Path_262" data-name="Path 262" d="M489.662,438.907a14.66,14.66,0,0,1-28.046,5.91,14.468,14.468,0,0,1-1.246-5.91,14.66,14.66,0,0,1,28.724-4.059A14.825,14.825,0,0,1,489.662,438.907Z" transform="translate(-102.653 -143.857)" fill="#a1616a"/>
  <path id="Path_263" data-name="Path 263" d="M502.754,562.491a8.915,8.915,0,0,0-2.126,4.05s-7.2,4.92-6.725,1.833-3.757-15.759-3.757-15.759l.476,17.17s-23.044-1.081-24.739-2.749-11.471-4.939-11.471-4.939-3.014,2.419-5.791,4.251c-.366-2.071-.632-3.894-.632-3.894l9.9-7.98,24.739-6.487L491.924,545l9.062,14.284S501.92,560.769,502.754,562.491Z" transform="translate(-101.616 -153.964)" opacity="0.1"/>
  <path id="Path_264" data-name="Path 264" d="M503.161,553.285c-1.915,1.2-2.639,4.444-2.639,4.444s-7.2,4.92-6.725,1.832-3.72-15.723-3.72-15.723l.486,17.17s-23.053-1.081-24.739-2.749-11.526-4.92-11.526-4.92-8.521,6.844-10.079,6.24,2.749-12.241,2.749-12.241l4.435-68.187s-1.2-20.286.6-21.01a2.383,2.383,0,0,0,.751-.476c1.191-1.063,1.548-3.225,1.649-5.049.119-2.153,3-1.081,3-1.081l-1.677,2.162,14.88,9.043.128.082a17.862,17.862,0,0,1,1.833-.815c1.319-.5,3.069-.98,4.215-.5a4.132,4.132,0,0,1,1.576,1.42,17.565,17.565,0,0,1,2.025,4.1l5.406,9.117s2.749,12.131,2.749,12.608.843,11.526,1.832,12.727,1.924,7.2,1.567,9.007.6,8.521.6,8.521c3.967,3.243,6,14.284,6,14.284s6.249,12.369,6.725,13.808S505.085,552.084,503.161,553.285Z" transform="translate(-101.272 -146.114)" fill="#444053"/>
  <path id="Path_265" data-name="Path 265" d="M471.438,463.211c-1.466,2.162-5.681,5.2-5.681,5.2L453.59,458.135c1.191-1.063,1.548-3.234,1.649-5.049.119-2.162,3-1.081,3-1.081l-.348.449a1.942,1.942,0,0,0,.522,2.84Z" transform="translate(-102.085 -146.153)" opacity="0.1"/>
  <path id="Path_266" data-name="Path 266" d="M471.438,462.681c-1.466,2.162-5.681,5.2-5.681,5.2l-12.168-10.28c1.191-1.063,1.548-3.225,1.649-5.049.119-2.153,3-1.081,3-1.081l-.348.449a1.942,1.942,0,0,0,.522,2.84Z" transform="translate(-102.085 -146.109)" fill="#444053"/>
  <path id="Path_267" data-name="Path 267" d="M478.671,465.331c-1.576,1.878-3.8,4.013-3.665,2.941s-1.329-3.427-2.236-4.48a6.689,6.689,0,0,1,4.361.119,4.132,4.132,0,0,1,1.539,1.42Z" transform="translate(-103.692 -147.137)" opacity="0.1"/>
  <path id="Path_268" data-name="Path 268" d="M478.943,464.563c-1.576,1.887-3.8,4.013-3.665,2.95s-1.182-2.8-2.1-3.857c1.319-.5,3.069-.98,4.215-.5a4.032,4.032,0,0,1,1.548,1.411Z" transform="translate(-103.726 -147.093)" fill="#444053"/>
  <path id="Path_269" data-name="Path 269" d="M451.816,458.8s.156-1.439-1.924,1.045a25.372,25.372,0,0,1-5.956,4.6s-8.878,6.249-9.364,9.162-3.363,15.365-1.832,19.525,13.13,24.1,13.13,24.1-3.042,3.6-2.327,7.843,1.6,10.079,1.2,11.361.486,4.48-.916,5.6-2.795,3.042,1.448,5.607c0,0,.8,2.162.073,2.639s10.647,5.443,15.127,2.8,12.571-23.767,12.727-28.5-2.483-20.322-3.922-24.006-5.763-18.013-7.6-21.211S451.816,458.8,451.816,458.8Z" transform="translate(-100.302 -146.71)" opacity="0.1"/>
  <path id="Path_270" data-name="Path 270" d="M451.282,458.8s.165-1.439-1.915,1.045a25.371,25.371,0,0,1-6,4.636s-8.888,6.249-9.364,9.163-3.363,15.365-1.832,19.525,13.121,24.1,13.121,24.1-3.042,3.6-2.318,7.843,1.6,10.079,1.2,11.361.476,4.48-.916,5.6-2.8,3.042,1.439,5.607c0,0,.806,2.162.082,2.639s10.647,5.443,15.127,2.8,12.562-23.767,12.727-28.5-2.483-20.322-3.922-24.006-5.763-18.013-7.6-21.211S451.282,458.8,451.282,458.8Z" transform="translate(-100.254 -146.71)" fill="#ff63b9"/>
  <path id="Path_271" data-name="Path 271" d="M449.58,473.69s6.881,7.6,6.643,12.644C456.223,486.334,456.305,478.17,449.58,473.69Z" transform="translate(-101.749 -147.992)" opacity="0.1"/>
  <path id="Path_272" data-name="Path 272" d="M474.917,461.761S479.38,459.013,485,466c0,0,4.077,2.318,5.278,2.886s2.565,15.439,2.565,15.439,2.639,6.414,1.915,10.079,2.089,16.328,2.089,16.328,4.636,22.732,4.48,23.364-4.728-7.119-4.645-10.995-3.839-15.851-4.4-16.566-4.407-21.294-4.407-21.294-3.115-8.723-5.122-11.6-4.48-8.329-5.5-9.291a10.581,10.581,0,0,0-2.474-1.594Z" transform="translate(-103.86 -146.948)" opacity="0.1"/>
  <path id="Path_273" data-name="Path 273" d="M474.862,461.761s5-2.749,10.6,4.242c0,0,4.086,2.318,5.287,2.886s2.556,15.439,2.556,15.439,2.639,6.414,1.924,10.079,2.08,16.328,2.08,16.328,4.645,22.732,4.48,23.364-4.719-7.119-4.645-10.995-3.839-15.851-4.4-16.566-4.4-21.294-4.4-21.294-3.124-8.649-5.122-11.554-4.49-8.329-5.5-9.291a10.014,10.014,0,0,0-2.96-1.594Z" transform="translate(-103.859 -146.948)" fill="#ff63b9"/>
  <path id="Path_274" data-name="Path 274" d="M498.85,516.033s9.52-6.24,14.119-3.161,12.131,7.449,4.728,10.61-17.647,2.556-17.647,2.556Z" transform="translate(-105.876 -151.202)" fill="#a1616a"/>
  <path id="Path_275" data-name="Path 275" d="M490.782,581.571c-1.42,3.051-2.593,18.325-3.39,23.2-1.136-1.952-2.51-4.279-2.978-5.012a63.983,63.983,0,0,1-2.795-7.128c.916-2.2,3.4-8.5,3.4-10.812,0-2.822,4.581-6.368,4.581-6.368a5.3,5.3,0,0,1,1.182,6.121Z" transform="translate(-104.433 -156.515)" opacity="0.1"/>
  <path id="Path_276" data-name="Path 276" d="M489.094,434.849a4.339,4.339,0,0,1-.715.293c-1.127.3-2.226-.458-3.225-1.063s-2.382-1.054-3.253-.266c-1.127,1.026-.312,3.216-1.475,4.206-.733.632-1.9.412-2.749.916s-1.063,1.649-1.274,2.62-.614,2.089-1.576,2.373-1.832-.339-2.749-.312a.891.891,0,0,1-.55-.11.586.586,0,0,1-.092-.431,9.382,9.382,0,0,0-.312-3.473,3.326,3.326,0,0,0-2.437-2.291c-1.686-.257-3.106,1.219-4.1,2.611a42.518,42.518,0,0,0-2.831,4.581c-.046.082-.092.192-.147.321a14.467,14.467,0,0,1-1.246-5.91,14.66,14.66,0,0,1,28.724-4.059Z" transform="translate(-102.653 -143.858)" opacity="0.1"/>
  <path id="Path_277" data-name="Path 277" d="M464.3,438.926c.99-1.393,2.41-2.868,4.1-2.611a3.335,3.335,0,0,1,2.437,2.281,9.227,9.227,0,0,1,.3,3.473.642.642,0,0,0,.1.44c.128.147.357.119.55.11.916,0,1.878.577,2.749.312s1.374-1.4,1.576-2.373a3.82,3.82,0,0,1,1.274-2.62c.843-.531,1.988-.3,2.749-.916,1.164-.99.348-3.189,1.475-4.206.87-.788,2.254-.339,3.253.266s2.1,1.365,3.225,1.063a9.527,9.527,0,0,0,1.09-.467c1.787-.678,4.1.477,5.552-.742a4.315,4.315,0,0,0,1.109-1.924,11.821,11.821,0,0,0,.806-3.051,4.1,4.1,0,0,0-.806-2.987c-.916-1.118-2.565-1.4-3.784-2.226a9.29,9.29,0,0,1-2.41-2.85,10.527,10.527,0,0,0-2.346-2.914,3.445,3.445,0,0,0-3.528-.55,3.665,3.665,0,0,1-1.154.541,2.309,2.309,0,0,1-1.274-.348c-4.16-1.961-9.007-1.613-13.57-1.026a17.463,17.463,0,0,0-5.351,1.292,6.414,6.414,0,0,0-3.61,3.949c-.367,1.411-.082,2.941-.531,4.334-.3.916-.916,1.75-1.283,2.675-.971,2.529.192,5.314.687,7.98.541,2.914.266,6.066,1.5,8.823.247.541.513,1.484,1.127,1.127.449-.266.916-1.833,1.145-2.281a44.1,44.1,0,0,1,2.84-4.572Z" transform="translate(-102.339 -143.088)" fill="#3f3d56"/>
  <path id="Path_278" data-name="Path 278" d="M436.022,491.04l-2.162,6.139s5.122,19.049,7.522,23.053,5.919,9.162,5.919,9.162a21.99,21.99,0,0,0,12.827,1.594c6.881-1.356,26.965-4.957,26.965-4.957a2.675,2.675,0,0,0,2.565-.962c.916-1.283,5.442-1.924,5.442-1.924s5.278-7.678-1.2-10.885c0,0-.8,1.768-4.242.559s-4.48.962-4.48.962-5.607,1.127-8.723.724-10.885-.559-11.691-1.2a1.017,1.017,0,0,0-1.439.083,8.732,8.732,0,0,1-2.556-1.448c-.641-.715-1.521.806-1.521.806s-1.127-.641-.806-1.439-1.035-3.848-1.035-3.848a7.752,7.752,0,0,1-.238-3.6c.394-1.6-2.007-7.33-2.007-7.33a10.389,10.389,0,0,1,.321-2.886c.4-1.439-3.042-4.325-3.042-4.325S449.079,473,441.96,478.322A14,14,0,0,0,436.022,491.04Z" transform="translate(-100.433 -148.291)" opacity="0.1"/>
  <path id="Path_279" data-name="Path 279" d="M435.492,491.04l-2.162,6.139s5.122,19.049,7.522,23.053,5.928,9.162,5.928,9.162a21.935,21.935,0,0,0,12.827,1.594c6.89-1.356,26.974-4.957,26.974-4.957a2.675,2.675,0,0,0,2.566-.962c.916-1.283,5.442-1.924,5.442-1.924s5.278-7.678-1.2-10.885c0,0-.806,1.768-4.242.559s-4.49.962-4.49.962-5.6,1.127-8.723.724-10.885-.559-11.682-1.2a1.017,1.017,0,0,0-1.439.083,8.741,8.741,0,0,1-2.565-1.448c-.641-.715-1.521.806-1.521.806s-1.118-.641-.8-1.439-1.045-3.848-1.045-3.848a7.889,7.889,0,0,1-.238-3.6c.4-1.6-2-7.33-2-7.33a10,10,0,0,1,.321-2.886c.394-1.439-3.042-4.325-3.042-4.325S448.567,473,441.448,478.322A14.036,14.036,0,0,0,435.492,491.04Z" transform="translate(-100.388 -148.291)" fill="#ff63b9"/>
  <path id="Path_280" data-name="Path 280" d="M456.745,512.56s-7.843,1.6-5.2,2.959S456.745,512.56,456.745,512.56Z" transform="translate(-101.868 -151.247)" opacity="0.1"/>
  <g id="Group_12" data-name="Group 12" transform="translate(354.264 283.734)" opacity="0.1">
    <path id="Path_281" data-name="Path 281" d="M470.811,438.536a3.3,3.3,0,0,0-2.437-2.281c-1.686-.257-3.106,1.219-4.1,2.6a44.245,44.245,0,0,0-2.84,4.581c-.257.476-.7,2.016-1.145,2.281-.614.357-.916-.6-1.127-1.136-1.237-2.749-.916-5.91-1.5-8.823a51.029,51.029,0,0,1-1.035-5.14c-.183,2.089.641,4.288,1.035,6.414.541,2.914.266,6.066,1.5,8.823.247.541.513,1.484,1.127,1.127.449-.266.916-1.832,1.145-2.272a43.285,43.285,0,0,1,2.84-4.581c.99-1.393,2.41-2.868,4.1-2.6a3.3,3.3,0,0,1,2.437,2.281,6.267,6.267,0,0,1,.321,1.832A8.246,8.246,0,0,0,470.811,438.536Z" transform="translate(-456.601 -428.119)"/>
    <path id="Path_282" data-name="Path 282" d="M497.145,430.74a4.233,4.233,0,0,1-1.109,1.915c-1.457,1.219-3.766.073-5.552.751-.366.137-.706.357-1.09.467-1.127.293-2.226-.458-3.225-1.063s-2.382-1.063-3.253-.275c-1.127,1.026-.312,3.216-1.475,4.206-.733.632-1.9.412-2.749.916s-1.063,1.64-1.274,2.611-.614,2.089-1.576,2.373-1.832-.339-2.749-.3a.891.891,0,0,1-.55-.11.256.256,0,0,1-.064-.119v.962a.632.632,0,0,0,.1.431c.128.147.357.119.55.119.916,0,1.878.568,2.749.3s1.374-1.393,1.576-2.373a3.78,3.78,0,0,1,1.274-2.611c.843-.531,1.988-.3,2.749-.916,1.164-.99.348-3.179,1.475-4.206.87-.788,2.254-.339,3.253.266s2.1,1.365,3.225,1.063a11.4,11.4,0,0,0,1.09-.458c1.787-.678,4.1.467,5.552-.751a4.279,4.279,0,0,0,1.109-1.915,11.982,11.982,0,0,0,.806-3.06,4.664,4.664,0,0,0,0-1.072A13.57,13.57,0,0,1,497.145,430.74Z" transform="translate(-457.931 -427.89)"/>
  </g>
  <ellipse id="Ellipse_6" data-name="Ellipse 6" cx="37.493" cy="7.211" rx="37.493" ry="7.211" transform="translate(196.192 510.99)" fill="#ff63b9"/>
  <ellipse id="Ellipse_7" data-name="Ellipse 7" cx="4.361" cy="5.717" rx="4.361" ry="5.717" transform="translate(228.7 509.424)" fill="#3f3d56"/>
  <ellipse id="Ellipse_8" data-name="Ellipse 8" cx="4.361" cy="5.717" rx="4.361" ry="5.717" transform="translate(228.7 502.442)" fill="#3f3d56"/>
  <ellipse id="Ellipse_9" data-name="Ellipse 9" cx="4.361" cy="5.717" rx="4.361" ry="5.717" transform="translate(228.7 495.46)" fill="#3f3d56"/>
  <ellipse id="Ellipse_10" data-name="Ellipse 10" cx="4.361" cy="5.717" rx="4.361" ry="5.717" transform="translate(228.7 488.469)" fill="#3f3d56"/>
  <ellipse id="Ellipse_11" data-name="Ellipse 11" cx="4.361" cy="5.717" rx="4.361" ry="5.717" transform="translate(228.7 481.487)" fill="#3f3d56"/>
  <ellipse id="Ellipse_12" data-name="Ellipse 12" cx="4.361" cy="5.717" rx="4.361" ry="5.717" transform="translate(228.7 474.506)" fill="#3f3d56"/>
  <ellipse id="Ellipse_13" data-name="Ellipse 13" cx="4.361" cy="5.717" rx="4.361" ry="5.717" transform="translate(228.7 467.524)" fill="#3f3d56"/>
  <path id="Path_283" data-name="Path 283" d="M338.739,579.467a20.4,20.4,0,0,0,1.622-2.4L328.9,575.188l12.4.092a20.955,20.955,0,0,0,.4-16.566l-16.639,8.631,15.375-11.3a20.909,20.909,0,1,0-34.533,23.4,20.632,20.632,0,0,0-2.382,3.812l14.88,7.733-15.869-5.333A20.872,20.872,0,0,0,305.9,605.3a20.909,20.909,0,1,0,32.866,0,20.909,20.909,0,0,0,0-25.847Z" transform="translate(-89.34 -154.017)" fill="#ff63b9"/>
  <path id="Path_284" data-name="Path 284" d="M301.39,596.632a20.808,20.808,0,0,0,4.48,12.928,20.909,20.909,0,1,0,32.866,0C341.54,606.005,301.39,594.286,301.39,596.632Z" transform="translate(-89.338 -158.263)" opacity="0.1"/>
  <ellipse id="Ellipse_14" data-name="Ellipse 14" cx="37.493" cy="7.211" rx="37.493" ry="7.211" transform="translate(677.221 577.876)" fill="#ff63b9"/>
  <ellipse id="Ellipse_15" data-name="Ellipse 15" cx="4.361" cy="5.717" rx="4.361" ry="5.717" transform="translate(709.729 576.31)" fill="#3f3d56"/>
  <ellipse id="Ellipse_16" data-name="Ellipse 16" cx="4.361" cy="5.717" rx="4.361" ry="5.717" transform="translate(709.729 569.328)" fill="#3f3d56"/>
  <ellipse id="Ellipse_17" data-name="Ellipse 17" cx="4.361" cy="5.717" rx="4.361" ry="5.717" transform="translate(709.729 562.346)" fill="#3f3d56"/>
  <ellipse id="Ellipse_18" data-name="Ellipse 18" cx="4.361" cy="5.717" rx="4.361" ry="5.717" transform="translate(709.729 555.355)" fill="#3f3d56"/>
  <ellipse id="Ellipse_19" data-name="Ellipse 19" cx="4.361" cy="5.717" rx="4.361" ry="5.717" transform="translate(709.729 548.373)" fill="#3f3d56"/>
  <ellipse id="Ellipse_20" data-name="Ellipse 20" cx="4.361" cy="5.717" rx="4.361" ry="5.717" transform="translate(709.729 541.392)" fill="#3f3d56"/>
  <ellipse id="Ellipse_21" data-name="Ellipse 21" cx="4.361" cy="5.717" rx="4.361" ry="5.717" transform="translate(709.729 534.41)" fill="#3f3d56"/>
  <path id="Path_285" data-name="Path 285" d="M1023.739,652.467a20.389,20.389,0,0,0,1.622-2.4l-11.462-1.878,12.4.092a20.955,20.955,0,0,0,.4-16.566l-16.639,8.631,15.375-11.3a20.909,20.909,0,1,0-34.533,23.4,20.633,20.633,0,0,0-2.382,3.812l14.88,7.733-15.869-5.333A20.872,20.872,0,0,0,990.9,678.3a20.909,20.909,0,1,0,32.866,0,20.909,20.909,0,0,0,0-25.847Z" transform="translate(-293.311 -160.131)" fill="#ff63b9"/>
  <path id="Path_286" data-name="Path 286" d="M986.39,669.632a20.808,20.808,0,0,0,4.481,12.928,20.909,20.909,0,1,0,32.866,0C1026.54,679.005,986.39,667.286,986.39,669.632Z" transform="translate(-293.309 -164.377)" opacity="0.1"/>
  <circle id="Ellipse_22" data-name="Ellipse 22" cx="13.991" cy="13.991" r="13.991" transform="translate(356.608 71.852)" fill="#ff63b9" opacity="0.1"/>
  <circle id="Ellipse_23" data-name="Ellipse 23" cx="23.456" cy="23.456" r="23.456" transform="translate(397.198 0)" fill="#ff63b9" opacity="0.1"/>
  <circle id="Ellipse_24" data-name="Ellipse 24" cx="23.456" cy="23.456" r="23.456" transform="translate(366.156 113.816)" fill="#ff63b9" opacity="0.1"/>
  <circle id="Ellipse_25" data-name="Ellipse 25" cx="13.991" cy="13.991" r="13.991" transform="translate(869.248 240.441)" fill="#ff63b9" opacity="0.1"/>
  <circle id="Ellipse_26" data-name="Ellipse 26" cx="23.456" cy="23.456" r="23.456" transform="translate(809.719 168.589)" fill="#ff63b9" opacity="0.1"/>
  <circle id="Ellipse_27" data-name="Ellipse 27" cx="23.456" cy="23.456" r="23.456" transform="translate(840.771 282.405)" fill="#ff63b9" opacity="0.1"/>
  <circle id="Ellipse_28" data-name="Ellipse 28" cx="7.926" cy="7.926" r="7.926" transform="translate(84.446 271.85)" fill="#ff63b9" opacity="0.1"/>
  <circle id="Ellipse_29" data-name="Ellipse 29" cx="13.286" cy="13.286" r="13.286" transform="translate(113.061 236.492)" fill="#ff63b9" opacity="0.1"/>
  <circle id="Ellipse_30" data-name="Ellipse 30" cx="13.286" cy="13.286" r="13.286" transform="translate(49.473 257.099)" fill="#ff63b9" opacity="0.1"/>
  <circle id="Ellipse_31" data-name="Ellipse 31" cx="7.926" cy="7.926" r="7.926" transform="translate(671.76 224.205)" fill="#ff63b9" opacity="0.1"/>
  <circle id="Ellipse_32" data-name="Ellipse 32" cx="13.286" cy="13.286" r="13.286" transform="translate(700.375 188.847)" fill="#ff63b9" opacity="0.1"/>
  <circle id="Ellipse_33" data-name="Ellipse 33" cx="13.286" cy="13.286" r="13.286" transform="translate(636.787 209.454)" fill="#ff63b9" opacity="0.1"/>
  <circle id="Ellipse_34" data-name="Ellipse 34" cx="33.214" cy="33.214" r="33.214" transform="translate(165.269 97.186)" fill="#ff63b9" opacity="0.1"/>
  <circle id="Ellipse_35" data-name="Ellipse 35" cx="19.168" cy="19.168" r="19.168" transform="translate(368.978 221.182)" fill="#ff63b9" opacity="0.1"/>
  <circle id="Ellipse_36" data-name="Ellipse 36" cx="19.168" cy="19.168" r="19.168" transform="translate(558.641 345.791)" fill="#ff63b9" opacity="0.1"/>
  <ellipse id="Ellipse_37" data-name="Ellipse 37" cx="109.491" cy="21.99" rx="109.491" ry="21.99" transform="translate(124.193 498.96)" fill="none" stroke="#444053" stroke-miterlimit="10" stroke-width="1"/>
  <ellipse id="Ellipse_38" data-name="Ellipse 38" cx="109.491" cy="21.99" rx="109.491" ry="21.99" transform="translate(605.222 564.014)" fill="none" stroke="#444053" stroke-miterlimit="10" stroke-width="1"/>
  <ellipse id="Ellipse_39" data-name="Ellipse 39" cx="109.491" cy="21.99" rx="109.491" ry="21.99" transform="translate(0.5 564.014)" fill="none" stroke="#444053" stroke-miterlimit="10" stroke-width="1"/>
</svg>
