<svg xmlns="http://www.w3.org/2000/svg" xmlns:xlink="http://www.w3.org/1999/xlink" width="85.587" height="128.381" viewBox="0 0 85.587 128.381"><defs><linearGradient id="a" x1="0.179" y1="0.947" x2="1" y2="0.504" gradientUnits="objectBoundingBox"><stop offset="0" stop-color="#f093fb"/><stop offset="1" stop-color="#6dd5ed"/></linearGradient></defs><path d="M152.625,77.731a58.419,58.419,0,0,0,12.962-34.937,42.794,42.794,0,1,0-85.587,0A58.419,58.419,0,0,0,92.962,77.731c.029.158,0,.312.038.47l8.4,29.387V124.1a4.28,4.28,0,0,0,4.279,4.279h34.235a4.28,4.28,0,0,0,4.279-4.279V107.588l8.4-29.387C152.629,78.043,152.6,77.884,152.625,77.731Zm4.4-34.937c0,19.257-15.795,42.794-34.235,42.794-10.27,0-19.719-7.313-26.078-17.117h13.24a4.279,4.279,0,0,0,0-8.559H92.838a3.936,3.936,0,0,0-.547.111,48.084,48.084,0,0,1-3.462-12.949h55.362a4.279,4.279,0,0,0,0-8.559H88.854a34.017,34.017,0,0,1,4.335-12.838h29.6a4.279,4.279,0,1,0,0-8.559H100.225a34.179,34.179,0,0,1,56.8,25.676ZM108.907,102.7l-4.039-14.122a34.686,34.686,0,0,0,13.647,5.251V102.7Zm26.725,17.117H109.956v-8.559h12.838a4.28,4.28,0,0,0,4.279-4.279V93.834a34.686,34.686,0,0,0,13.647-5.251l-4.925,17.238a3.842,3.842,0,0,0-.047.6,4.321,4.321,0,0,0-.116.565Z" transform="translate(-80)" fill="url(#a)"/><path d="M248.559,224h-4.279a4.279,4.279,0,1,0,0,8.559h4.279a4.279,4.279,0,1,0,0-8.559Z" transform="translate(-197.206 -164.089)" fill="url(#a)"/></svg>