<svg xmlns="http://www.w3.org/2000/svg" xmlns:xlink="http://www.w3.org/1999/xlink" width="147.378" height="127.667" viewBox="0 0 147.378 127.667"><defs><linearGradient id="a" x1="0.082" y1="1.681" x2="1" y2="0.125" gradientUnits="objectBoundingBox"><stop offset="0" stop-color="#f093fb"/><stop offset="1" stop-color="#6dd5ed"/></linearGradient></defs><path d="M134.788,67.121a4.9,4.9,0,0,0-2.2-.515H38.549L34.323,41.245a4.91,4.91,0,0,0-3.86-4l-24.55-4.91A4.909,4.909,0,0,0,.02,37.587l4.7,51.724L1.44,92.595A4.913,4.913,0,0,0,.02,96.066V110.8a4.911,4.911,0,0,0,4.91,4.91h19.64a4.91,4.91,0,1,0,0-9.82H9.84V98.1l3.472-3.472a4.91,4.91,0,0,0,1.438-3.914L10.415,43.248l14.78,2.947,4.355,26.121a4.912,4.912,0,0,0,4.842,4.11h96.778a17.48,17.48,0,0,1,6.334,14.73,17.48,17.48,0,0,1-6.325,14.73H98.222a4.91,4.91,0,1,0,0,9.82h34.37a4.928,4.928,0,0,0,2.2-.516,26.119,26.119,0,0,0,12.535-24.035A26.116,26.116,0,0,0,134.788,67.121Z" transform="translate(0 -32.23)" fill="url(#a)"/><path d="M125.341,272.739a4.91,4.91,0,0,0-6.678,1.9L95.517,316.312H77.29l20.5-36.9a4.91,4.91,0,0,0-8.583-4.772l-24.55,44.191a4.911,4.911,0,0,0,4.291,7.3H98.4a4.911,4.911,0,0,0,4.292-2.524l24.55-44.191A4.91,4.91,0,0,0,125.341,272.739Z" transform="translate(-44.372 -198.464)" fill="url(#a)"/><path d="M163.5,213.067a4.91,4.91,0,0,0-4.91-4.91H84.935a4.91,4.91,0,1,0,0,9.82h73.652A4.91,4.91,0,0,0,163.5,213.067Z" transform="translate(-55.454 -154.141)" fill="url(#a)"/><path d="M377.7,217.977a4.91,4.91,0,1,0,0-9.82h-4.91a4.91,4.91,0,1,0,0,9.82Z" transform="translate(-254.926 -154.141)" fill="url(#a)"/></svg>